<svg id="svg" version="1.1" xmlns="http://www.w3.org/2000/svg" xmlns:xlink="http://www.w3.org/1999/xlink" width="400" height="400" viewBox="0, 0, 400,400"><g id="svgg"><path id="path0" d="M76.880 124.880 C 76.182 125.578,76.182 274.422,76.880 275.120 C 77.702 275.942,106.239 275.795,106.557 274.967 C 107.063 273.648,106.829 125.389,106.320 124.880 C 105.632 124.192,77.568 124.192,76.880 124.880 M293.680 124.880 C 292.922 125.638,292.988 274.526,293.747 275.156 C 294.138 275.481,298.439 275.580,308.847 275.505 L 323.400 275.400 323.501 200.224 C 323.582 140.348,323.500 124.984,323.101 124.730 C 322.238 124.183,294.235 124.325,293.680 124.880 " stroke="none" fill="#0000ff" fill-rule="evenodd"></path><path id="path1" d="M0.000 86.000 L 0.000 172.000 13.751 172.000 C 24.284 172.000,27.590 171.883,27.879 171.500 C 28.086 171.225,28.757 169.855,29.370 168.455 C 31.510 163.570,34.961 159.765,39.288 157.520 L 41.800 156.217 49.768 156.071 L 57.736 155.926 58.842 154.819 L 59.949 153.713 60.074 138.156 L 60.200 122.600 61.300 120.288 C 61.905 119.017,62.400 117.880,62.400 117.761 C 62.400 117.487,64.352 114.868,65.400 113.736 C 66.532 112.512,69.485 110.345,71.600 109.186 L 73.400 108.200 92.000 108.200 L 110.600 108.200 112.800 109.356 C 114.010 109.993,115.920 111.253,117.044 112.156 C 118.917 113.662,119.400 114.223,120.873 116.600 C 121.145 117.040,121.671 117.862,122.042 118.427 C 124.064 121.508,124.187 123.040,124.400 147.880 C 124.533 163.383,124.741 171.301,125.021 171.581 C 125.313 171.873,148.370 171.971,200.421 171.901 L 275.400 171.800 275.600 148.400 C 275.821 122.558,275.835 122.406,278.491 117.700 C 280.140 114.779,283.987 111.042,286.941 109.491 L 289.400 108.200 308.000 108.200 L 326.600 108.200 329.056 109.489 C 331.733 110.895,335.644 114.246,336.580 115.936 C 336.904 116.521,337.758 118.170,338.478 119.600 L 339.787 122.200 339.993 137.874 L 340.200 153.549 341.336 154.734 L 342.472 155.919 350.536 156.092 L 358.600 156.265 361.081 157.554 C 364.954 159.567,370.400 165.333,370.400 167.422 C 370.400 167.587,370.855 168.685,371.412 169.861 L 372.423 172.000 386.212 172.000 L 400.000 172.000 400.000 86.000 L 400.000 0.000 200.000 0.000 L 0.000 0.000 0.000 86.000 M165.537 50.586 C 171.327 51.867,175.709 54.610,176.582 57.500 C 176.732 57.995,176.993 58.400,177.163 58.400 C 177.333 58.400,177.704 59.165,177.988 60.100 C 178.272 61.035,178.793 62.610,179.146 63.600 C 180.424 67.184,179.352 75.149,177.196 78.084 C 176.758 78.680,176.400 79.312,176.400 79.488 C 176.400 81.050,170.748 85.086,167.423 85.899 C 166.091 86.225,164.280 86.678,163.400 86.905 C 162.520 87.133,157.480 87.428,152.200 87.560 L 142.600 87.800 142.400 100.800 L 142.200 113.800 137.800 113.800 L 133.400 113.800 133.297 82.200 C 133.240 64.820,133.279 50.375,133.384 50.100 C 133.794 49.026,160.296 49.427,165.537 50.586 M142.893 57.518 C 142.501 57.779,142.411 60.283,142.493 68.628 L 142.600 79.400 152.894 79.507 L 163.188 79.613 165.362 78.387 C 172.078 74.597,172.575 63.718,166.264 58.637 L 164.727 57.400 154.064 57.290 C 148.199 57.229,143.172 57.332,142.893 57.518 M211.200 66.715 C 214.694 68.007,214.951 68.591,213.701 72.400 C 212.895 74.852,212.367 75.027,209.635 73.743 C 208.099 73.021,203.140 73.181,202.880 73.961 C 202.799 74.202,202.487 74.400,202.187 74.400 C 201.617 74.400,199.600 76.788,199.600 77.463 C 199.600 77.676,199.195 78.649,198.700 79.625 C 197.822 81.357,197.795 81.793,197.600 97.600 L 197.400 113.800 194.034 113.917 C 191.612 114.002,190.577 113.890,190.340 113.517 C 189.782 112.637,189.917 68.243,190.480 67.680 C 192.114 66.046,196.000 67.512,196.000 69.762 C 196.000 71.707,196.293 71.699,198.128 69.701 C 201.691 65.822,206.074 64.821,211.200 66.715 M246.611 66.686 C 251.055 67.938,258.400 73.775,258.400 76.055 C 258.400 76.433,258.659 77.002,258.976 77.319 C 259.293 77.635,260.029 79.836,260.611 82.209 C 263.437 93.711,259.289 106.842,251.600 110.739 C 250.830 111.129,249.840 111.643,249.400 111.881 C 244.490 114.535,232.750 114.250,229.601 111.401 C 229.236 111.070,228.730 110.800,228.477 110.800 C 226.315 110.800,220.369 102.334,219.827 98.485 C 219.694 97.542,219.322 96.012,218.999 95.085 C 218.651 94.087,218.412 91.933,218.412 89.800 C 218.412 87.667,218.651 85.513,218.999 84.515 C 219.322 83.588,219.694 82.058,219.827 81.115 C 220.389 77.122,226.442 68.800,228.784 68.800 C 229.145 68.800,229.663 68.575,229.935 68.300 C 232.277 65.937,240.966 65.096,246.611 66.686 M235.800 73.569 C 232.223 74.571,229.497 76.988,227.560 80.875 C 225.776 84.455,225.628 94.752,227.309 98.400 C 232.259 109.146,247.154 109.521,252.514 99.035 L 253.758 96.600 253.770 89.800 L 253.781 83.000 252.525 80.565 C 249.497 74.695,242.392 71.723,235.800 73.569 M107.200 200.800 C 107.200 250.330,107.334 275.164,107.600 275.000 C 108.154 274.658,108.154 126.942,107.600 126.600 C 107.334 126.436,107.200 151.270,107.200 200.800 M292.231 128.000 C 291.787 131.049,292.149 275.013,292.600 274.900 C 293.113 274.772,293.358 128.487,292.848 127.138 C 292.533 126.306,292.463 126.403,292.231 128.000 M340.266 174.369 C 340.120 175.101,340.000 186.635,340.000 200.000 C 340.000 213.365,340.120 224.899,340.266 225.631 C 340.960 229.100,341.144 223.734,341.144 200.000 C 341.144 176.266,340.960 170.900,340.266 174.369 M59.200 200.000 C 59.200 217.530,59.335 226.364,59.600 226.200 C 59.860 226.039,60.000 216.870,60.000 200.000 C 60.000 183.130,59.860 173.961,59.600 173.800 C 59.335 173.636,59.200 182.470,59.200 200.000 M124.880 188.880 C 124.142 189.618,124.201 210.537,124.942 211.152 C 125.341 211.483,145.371 211.575,200.442 211.501 L 275.400 211.400 275.506 200.228 C 275.589 191.556,275.500 188.983,275.106 188.734 C 274.227 188.175,125.440 188.320,124.880 188.880 M26.800 200.000 C 26.800 209.689,26.881 211.200,27.400 211.200 C 27.919 211.200,28.000 209.689,28.000 200.000 C 28.000 190.311,27.919 188.800,27.400 188.800 C 26.881 188.800,26.800 190.311,26.800 200.000 M372.181 189.306 C 371.715 190.520,372.201 210.934,372.700 211.100 C 373.092 211.231,373.200 208.842,373.200 200.033 C 373.200 189.672,372.970 187.250,372.181 189.306 M0.000 314.000 L 0.000 400.000 200.000 400.000 L 400.000 400.000 400.000 314.000 L 400.000 228.000 387.100 228.040 C 371.680 228.088,372.369 227.963,371.760 230.815 C 371.310 232.921,370.027 235.902,369.064 237.078 C 367.791 238.631,366.151 240.250,365.419 240.675 C 364.968 240.937,363.520 241.733,362.200 242.445 L 359.800 243.739 350.931 243.969 C 342.295 244.194,342.035 244.225,341.051 245.151 L 340.039 246.102 339.919 263.151 L 339.799 280.200 338.747 282.316 C 337.652 284.519,334.558 288.400,333.897 288.400 C 333.687 288.400,332.981 288.850,332.327 289.400 C 331.673 289.950,330.876 290.400,330.555 290.400 C 330.234 290.400,329.491 290.715,328.904 291.100 C 327.922 291.743,326.218 291.800,308.018 291.800 L 288.200 291.800 286.000 290.636 C 282.284 288.669,279.092 285.950,278.571 284.309 C 278.447 283.919,278.185 283.600,277.989 283.600 C 277.793 283.600,277.420 282.835,277.160 281.900 C 276.900 280.965,276.443 279.429,276.144 278.486 C 275.710 277.120,275.600 271.875,275.600 252.629 C 275.600 230.982,275.535 228.460,274.967 228.243 C 272.982 227.481,125.226 228.003,124.814 228.774 C 124.542 229.282,124.400 237.741,124.400 253.460 C 124.400 273.183,124.300 277.656,123.828 278.987 C 123.513 279.874,123.158 281.062,123.039 281.626 C 122.919 282.191,122.457 283.073,122.011 283.587 C 121.565 284.102,121.200 284.669,121.200 284.847 C 121.200 285.755,115.584 290.400,114.487 290.400 C 114.204 290.400,113.491 290.715,112.903 291.100 C 111.316 292.140,72.775 292.178,71.200 291.142 C 70.650 290.780,69.750 290.352,69.200 290.191 C 68.268 289.920,63.967 286.580,63.664 285.894 C 63.590 285.724,63.281 285.338,62.978 285.036 C 62.676 284.733,61.927 283.431,61.314 282.143 L 60.200 279.800 60.079 263.000 L 59.959 246.201 58.941 245.138 L 57.923 244.076 49.062 243.895 L 40.200 243.715 37.800 242.436 C 33.861 240.338,33.608 240.165,32.131 238.552 C 30.287 236.539,28.579 233.097,28.226 230.680 C 27.833 227.995,27.861 228.000,12.974 228.000 L 0.000 228.000 0.000 314.000 M69.800 302.800 C 71.340 303.227,73.007 303.582,73.504 303.588 C 77.717 303.643,86.685 311.563,87.781 316.196 C 87.936 316.854,88.242 317.502,88.461 317.637 C 90.179 318.700,89.290 322.400,87.316 322.400 C 86.788 322.400,85.568 322.759,84.605 323.198 C 83.642 323.637,82.617 323.902,82.327 323.788 C 81.816 323.587,79.598 319.386,79.599 318.622 C 79.602 316.771,75.087 312.544,71.232 310.787 C 66.682 308.714,55.229 309.603,51.969 312.281 C 51.621 312.567,51.166 312.800,50.956 312.800 C 49.285 312.800,44.133 319.955,43.008 323.840 C 42.632 325.138,42.116 326.453,41.862 326.761 C 40.905 327.924,41.281 344.676,42.315 346.933 C 42.802 347.996,43.200 349.143,43.200 349.481 C 43.200 352.255,50.641 359.877,54.060 360.604 C 54.797 360.761,55.734 361.184,56.142 361.545 C 58.167 363.334,71.384 362.227,75.200 359.948 C 75.530 359.751,76.523 359.257,77.406 358.850 C 78.289 358.442,79.256 357.815,79.555 357.455 C 79.853 357.095,80.338 356.800,80.631 356.800 C 81.423 356.800,81.652 354.790,81.519 349.000 L 81.400 343.800 73.222 343.691 C 63.449 343.562,63.600 343.625,63.600 339.670 C 63.600 335.372,62.830 335.600,77.330 335.600 C 88.314 335.600,89.821 335.676,90.469 336.262 C 91.143 336.872,91.200 337.768,91.200 347.688 C 91.200 358.624,91.088 359.557,89.635 360.699 C 86.523 363.143,80.095 366.781,78.863 366.794 C 78.568 366.797,77.869 367.160,77.309 367.600 C 76.750 368.040,75.821 368.402,75.246 368.405 C 74.671 368.407,72.760 368.765,71.000 369.200 C 66.836 370.229,61.964 370.229,57.800 369.200 C 56.040 368.765,54.323 368.407,53.985 368.405 C 53.646 368.402,52.663 368.040,51.800 367.600 C 50.937 367.160,49.964 366.800,49.637 366.800 C 49.310 366.800,48.358 366.350,47.522 365.800 C 46.685 365.250,45.315 364.349,44.477 363.799 C 41.831 362.060,38.315 358.070,36.899 355.200 C 36.628 354.650,36.240 353.930,36.038 353.600 C 34.970 351.856,33.612 348.383,33.380 346.800 C 33.235 345.810,32.762 343.488,32.329 341.639 C 31.500 338.103,31.504 334.349,32.340 330.800 C 32.573 329.810,33.006 327.650,33.301 326.000 C 33.596 324.350,34.126 322.550,34.479 322.000 C 34.832 321.450,35.241 320.427,35.386 319.728 C 35.532 319.028,35.901 318.248,36.205 317.996 C 36.510 317.743,36.962 316.920,37.211 316.168 C 37.459 315.416,37.816 314.800,38.004 314.800 C 38.192 314.800,38.461 314.439,38.601 313.997 C 38.962 312.861,44.236 307.690,45.743 306.995 C 46.434 306.677,47.270 306.243,47.600 306.032 C 48.993 305.142,52.821 303.599,53.675 303.583 C 54.184 303.574,55.950 303.227,57.600 302.813 C 61.562 301.817,66.240 301.812,69.800 302.800 M121.399 320.653 C 125.616 322.041,125.729 322.146,125.396 324.377 C 124.779 328.514,123.828 329.435,121.454 328.198 C 117.362 326.063,112.511 327.984,110.338 332.600 L 109.020 335.400 108.885 351.390 C 108.730 369.642,109.014 368.400,105.000 368.400 C 100.852 368.400,101.179 370.502,101.297 344.555 L 101.400 321.800 103.734 321.679 C 106.550 321.533,107.200 321.977,107.200 324.049 C 107.200 326.030,107.449 325.999,109.617 323.750 C 113.312 319.915,116.561 319.061,121.399 320.653 M159.200 320.662 C 161.510 321.249,163.670 321.949,164.000 322.217 C 164.330 322.484,165.152 322.983,165.826 323.324 C 169.907 325.388,170.796 329.204,170.817 344.752 C 170.836 358.066,171.227 365.387,171.960 366.120 C 173.275 367.435,171.260 368.503,167.806 368.322 C 166.234 368.239,165.387 368.006,165.185 367.600 C 165.021 367.270,164.553 366.239,164.144 365.309 C 163.168 363.091,162.967 363.055,160.303 364.623 C 159.057 365.356,157.265 366.161,156.319 366.411 C 155.374 366.661,153.700 367.142,152.600 367.479 C 149.436 368.449,144.989 368.593,142.200 367.815 C 140.880 367.447,139.101 366.972,138.246 366.759 C 134.091 365.724,129.600 359.673,129.600 355.112 C 129.600 351.500,133.128 345.135,135.453 344.551 C 135.974 344.420,136.400 344.176,136.400 344.007 C 136.400 343.103,143.136 341.033,147.000 340.749 C 149.200 340.588,151.810 340.258,152.800 340.017 C 153.790 339.776,156.009 339.401,157.731 339.184 C 162.832 338.540,163.315 338.136,163.138 334.668 C 162.961 331.187,162.271 330.105,159.291 328.638 C 156.152 327.093,147.017 327.071,143.996 328.602 C 142.179 329.523,139.200 332.977,139.200 334.163 C 139.200 335.320,137.907 335.972,136.651 335.448 C 135.963 335.161,134.743 334.803,133.940 334.652 C 131.661 334.225,131.485 333.715,132.637 330.863 C 134.884 325.300,138.591 322.265,144.679 321.006 C 146.615 320.605,148.560 320.136,149.000 319.964 C 150.681 319.306,155.040 319.604,159.200 320.662 M206.776 320.890 C 209.706 322.032,213.971 325.839,213.995 327.335 C 213.998 327.519,215.430 326.341,217.178 324.717 C 226.209 316.327,237.881 318.791,241.071 329.762 C 242.164 333.522,242.557 366.883,241.520 367.920 C 240.845 368.595,235.429 368.558,234.861 367.874 C 234.564 367.515,234.388 361.678,234.312 349.574 L 234.200 331.800 233.206 330.474 C 231.064 327.618,223.359 326.298,221.094 328.400 C 220.739 328.730,219.835 329.443,219.085 329.985 C 218.311 330.544,217.261 331.925,216.652 333.185 L 215.581 335.400 215.591 351.126 C 215.602 369.635,215.887 368.400,211.600 368.400 C 207.302 368.400,207.600 369.784,207.600 349.852 C 207.600 331.283,207.626 331.508,205.187 329.141 L 203.599 327.600 199.947 327.600 C 195.012 327.600,192.383 329.147,190.087 333.400 L 189.008 335.400 188.886 351.380 C 188.748 369.650,189.033 368.400,185.000 368.400 C 180.852 368.400,181.179 370.502,181.297 344.555 L 181.400 321.800 184.766 321.683 C 188.612 321.549,188.785 321.667,188.794 324.433 C 188.802 326.763,189.147 327.099,190.035 325.639 C 192.856 321.001,201.075 318.669,206.776 320.890 M277.608 320.854 C 281.254 322.382,282.117 323.035,283.939 325.637 L 285.359 327.665 287.445 325.533 C 291.017 321.880,295.695 319.600,299.615 319.600 C 301.234 319.600,306.960 321.702,307.899 322.641 C 308.206 322.949,308.594 323.200,308.761 323.200 C 309.198 323.200,311.600 327.001,311.600 327.693 C 311.600 328.013,311.960 329.321,312.400 330.600 C 313.376 333.437,313.664 366.976,312.720 367.920 C 312.051 368.589,306.629 368.558,306.069 367.883 C 305.782 367.537,305.600 361.544,305.520 349.783 C 305.406 333.098,305.360 332.133,304.610 330.894 C 301.183 325.227,291.661 326.433,287.795 333.022 L 286.635 335.000 286.482 351.398 C 286.372 363.271,286.201 367.878,285.865 368.092 C 285.092 368.584,279.806 368.446,279.280 367.920 C 278.922 367.562,278.800 363.158,278.800 350.570 C 278.800 331.139,278.863 331.727,276.514 329.377 L 274.737 327.600 271.104 327.600 C 265.992 327.600,263.203 329.305,261.007 333.772 C 260.258 335.294,260.193 336.439,260.003 351.400 C 259.891 360.200,259.654 367.625,259.476 367.900 C 259.112 368.463,253.735 368.601,252.897 368.068 C 252.500 367.816,252.415 362.889,252.497 344.774 L 252.600 321.800 255.738 321.682 C 259.546 321.540,260.000 321.832,260.000 324.425 C 260.000 325.485,260.180 326.464,260.400 326.600 C 260.620 326.736,260.800 326.602,260.800 326.302 C 260.800 325.032,264.454 322.361,268.400 320.747 C 271.950 319.295,273.942 319.318,277.608 320.854 M347.120 320.142 C 347.714 320.439,349.085 320.900,350.168 321.164 C 356.197 322.639,361.785 328.813,363.379 335.760 C 363.687 337.102,364.142 339.032,364.391 340.049 C 364.639 341.066,364.788 342.956,364.721 344.249 L 364.600 346.600 347.221 346.704 C 328.099 346.819,329.022 346.679,329.433 349.400 C 331.348 362.083,349.034 365.107,356.496 354.028 C 357.736 352.188,358.283 352.088,361.400 353.137 L 363.400 353.810 363.319 355.556 C 363.209 357.932,358.209 364.757,356.554 364.791 C 356.309 364.796,355.646 365.163,355.082 365.607 C 354.518 366.051,353.279 366.577,352.328 366.776 C 351.378 366.975,349.610 367.420,348.400 367.764 C 345.439 368.607,341.669 368.562,338.887 367.650 C 337.629 367.238,336.000 366.790,335.268 366.654 C 334.535 366.518,333.475 366.045,332.914 365.604 C 332.352 365.162,331.691 364.800,331.446 364.800 C 330.998 364.799,327.664 361.709,326.238 359.974 C 324.721 358.127,323.346 354.940,322.842 352.101 C 322.559 350.507,322.164 349.101,321.964 348.978 C 321.271 348.550,321.551 341.049,322.360 338.342 C 322.778 336.944,323.244 335.086,323.395 334.214 C 323.545 333.341,324.013 332.143,324.434 331.552 C 324.855 330.960,325.200 330.316,325.200 330.120 C 325.200 327.531,332.265 322.297,337.800 320.785 C 339.560 320.304,341.180 319.855,341.400 319.787 C 342.519 319.440,346.173 319.667,347.120 320.142 M336.600 328.631 C 333.695 330.177,332.007 331.537,331.496 332.741 C 331.249 333.324,330.713 334.181,330.305 334.646 C 329.864 335.148,329.529 336.205,329.481 337.246 L 329.400 339.000 343.200 339.000 L 357.000 339.000 356.956 337.516 C 356.915 336.145,354.975 331.600,354.431 331.600 C 354.299 331.600,353.730 331.172,353.167 330.649 C 352.603 330.127,351.751 329.575,351.273 329.423 C 350.796 329.272,350.102 328.844,349.732 328.474 C 348.446 327.185,339.106 327.297,336.600 328.631 M160.600 345.594 C 159.720 345.752,158.492 346.089,157.872 346.342 C 157.251 346.595,154.659 346.984,152.111 347.208 C 149.564 347.431,146.382 347.878,145.040 348.201 C 143.698 348.524,142.150 348.879,141.600 348.989 C 138.020 349.710,135.829 355.413,138.200 357.837 C 140.477 360.164,141.846 360.564,147.600 360.581 L 153.000 360.597 156.098 359.051 C 161.533 356.341,163.311 353.686,163.118 348.570 C 162.990 345.201,162.962 345.168,160.600 345.594 " stroke="none" fill="#fbfbfb" fill-rule="evenodd"></path><path id="path2" d="M44.880 172.880 C 44.186 173.574,44.186 226.426,44.880 227.120 C 45.684 227.924,58.244 227.784,58.557 226.967 C 59.058 225.662,58.829 173.389,58.320 172.880 C 57.988 172.548,55.920 172.400,51.600 172.400 C 47.280 172.400,45.212 172.548,44.880 172.880 M341.788 172.890 C 341.680 173.171,341.639 185.550,341.696 200.400 L 341.800 227.400 348.600 227.400 L 355.400 227.400 355.400 200.000 L 355.400 172.600 348.691 172.490 C 343.543 172.406,341.937 172.499,341.788 172.890 " stroke="none" fill="#ff0000" fill-rule="evenodd"></path><path id="path3" d="M133.384 50.100 C 133.279 50.375,133.240 64.820,133.297 82.200 L 133.400 113.800 137.800 113.800 L 142.200 113.800 142.400 100.800 L 142.600 87.800 152.200 87.560 C 157.480 87.428,162.520 87.133,163.400 86.905 C 164.280 86.678,166.091 86.225,167.423 85.899 C 170.748 85.086,176.400 81.050,176.400 79.488 C 176.400 79.312,176.758 78.680,177.196 78.084 C 179.352 75.149,180.424 67.184,179.146 63.600 C 178.793 62.610,178.272 61.035,177.988 60.100 C 177.704 59.165,177.333 58.400,177.163 58.400 C 176.993 58.400,176.732 57.995,176.582 57.500 C 175.709 54.610,171.327 51.867,165.537 50.586 C 160.296 49.427,133.794 49.026,133.384 50.100 M162.000 51.200 C 162.645 51.845,163.333 52.000,165.546 52.000 C 167.686 52.000,168.516 52.176,169.309 52.800 C 169.869 53.240,170.562 53.600,170.851 53.600 C 171.499 53.600,175.600 57.600,175.600 58.232 C 175.600 58.485,175.956 59.145,176.391 59.697 C 176.844 60.274,177.294 61.661,177.445 62.948 C 177.591 64.183,177.955 65.396,178.255 65.645 C 178.600 65.932,178.800 66.944,178.800 68.400 C 178.800 69.856,178.600 70.868,178.255 71.155 C 177.955 71.404,177.593 72.597,177.451 73.808 C 177.287 75.204,176.901 76.299,176.396 76.804 C 175.958 77.242,175.600 77.946,175.600 78.369 C 175.600 79.086,173.473 81.600,172.865 81.600 C 172.715 81.600,172.368 81.960,172.093 82.400 C 171.818 82.840,171.235 83.200,170.797 83.200 C 170.358 83.200,169.640 83.560,169.200 84.000 C 168.694 84.506,167.849 84.806,166.900 84.817 C 164.753 84.842,161.947 85.438,161.641 85.934 C 161.472 86.207,158.005 86.401,151.874 86.479 C 143.953 86.580,142.307 86.700,141.991 87.200 C 141.774 87.544,141.610 93.209,141.606 100.500 L 141.600 113.200 137.800 113.200 L 134.000 113.200 134.000 81.800 L 134.000 50.400 147.600 50.400 C 160.667 50.400,161.231 50.431,162.000 51.200 M142.096 56.864 C 141.485 57.475,141.389 79.048,141.993 80.000 C 142.692 81.099,164.655 80.840,165.536 79.723 C 165.901 79.259,166.740 78.761,167.400 78.617 C 170.083 78.030,170.983 75.770,171.130 69.248 C 171.300 61.772,171.330 61.872,167.800 58.244 L 166.200 56.600 154.396 56.484 C 145.403 56.395,142.475 56.485,142.096 56.864 M166.264 58.637 C 169.879 61.547,171.832 69.134,170.013 73.200 C 168.718 76.095,167.996 76.900,165.362 78.387 L 163.188 79.613 152.894 79.507 L 142.600 79.400 142.493 68.628 C 142.411 60.283,142.501 57.779,142.893 57.518 C 143.172 57.332,148.199 57.229,154.064 57.290 L 164.727 57.400 166.264 58.637 M202.200 66.770 C 200.784 67.425,199.114 68.628,198.128 69.701 C 196.293 71.699,196.000 71.707,196.000 69.762 C 196.000 67.512,192.114 66.046,190.480 67.680 C 189.917 68.243,189.782 112.637,190.340 113.517 C 190.577 113.890,191.612 114.002,194.034 113.917 L 197.400 113.800 197.600 97.600 C 197.795 81.793,197.822 81.357,198.700 79.625 C 199.195 78.649,199.600 77.676,199.600 77.463 C 199.600 76.788,201.617 74.400,202.187 74.400 C 202.487 74.400,202.799 74.202,202.880 73.961 C 203.140 73.181,208.099 73.021,209.635 73.743 C 212.715 75.190,214.703 73.180,214.312 69.012 C 214.049 66.221,206.433 64.811,202.200 66.770 M233.515 66.744 C 231.819 67.325,230.208 68.025,229.935 68.300 C 229.663 68.575,229.145 68.800,228.784 68.800 C 226.442 68.800,220.389 77.122,219.827 81.115 C 219.694 82.058,219.322 83.588,218.999 84.515 C 218.651 85.513,218.412 87.667,218.412 89.800 C 218.412 91.933,218.651 94.087,218.999 95.085 C 219.322 96.012,219.694 97.542,219.827 98.485 C 220.369 102.334,226.315 110.800,228.477 110.800 C 228.730 110.800,229.236 111.070,229.601 111.401 C 232.750 114.250,244.490 114.535,249.400 111.881 C 249.840 111.643,250.830 111.129,251.600 110.739 C 259.289 106.842,263.437 93.711,260.611 82.209 C 260.029 79.836,259.293 77.635,258.976 77.319 C 258.659 77.002,258.400 76.433,258.400 76.055 C 258.400 75.117,253.418 69.936,251.211 68.578 C 246.626 65.758,238.773 64.944,233.515 66.744 M208.018 67.016 C 208.392 67.355,209.625 67.779,210.758 67.958 C 213.348 68.367,213.337 68.353,213.010 70.727 L 212.738 72.704 207.669 72.509 L 202.600 72.314 200.700 73.810 C 199.349 74.874,198.800 75.593,198.800 76.296 C 198.800 76.840,198.350 77.819,197.800 78.473 L 196.800 79.661 196.800 96.431 L 196.800 113.200 193.800 113.200 L 190.800 113.200 190.800 90.800 L 190.800 68.400 192.744 68.400 L 194.687 68.400 195.044 70.459 C 195.614 73.754,196.278 73.787,199.197 70.667 C 200.930 68.814,201.984 68.000,202.650 68.000 C 203.177 68.000,203.916 67.640,204.293 67.200 C 205.114 66.241,207.056 66.146,208.018 67.016 M243.707 67.200 C 244.198 67.774,244.887 68.000,246.142 68.000 C 247.286 68.000,248.244 68.277,248.909 68.800 C 249.469 69.240,250.214 69.600,250.566 69.600 C 251.511 69.600,257.048 75.339,257.380 76.663 C 257.537 77.288,258.010 78.122,258.432 78.516 C 259.036 79.078,259.200 79.783,259.200 81.816 C 259.200 83.867,259.365 84.565,260.000 85.200 C 261.068 86.268,261.174 91.724,260.149 92.857 C 259.700 93.353,259.418 94.697,259.243 97.176 C 259.058 99.782,258.810 100.916,258.342 101.287 C 257.987 101.569,257.579 102.305,257.435 102.921 C 257.070 104.489,252.152 109.364,250.335 109.959 C 249.530 110.223,248.770 110.700,248.648 111.019 C 248.492 111.426,247.789 111.600,246.307 111.600 C 244.952 111.600,243.650 111.889,242.696 112.400 C 240.717 113.461,237.857 113.461,236.509 112.400 C 235.819 111.857,234.886 111.600,233.608 111.600 C 232.262 111.600,231.527 111.382,231.033 110.836 C 230.652 110.416,229.888 109.958,229.335 109.819 C 228.057 109.499,222.800 104.201,222.800 103.234 C 222.800 102.835,222.463 102.079,222.050 101.554 C 221.568 100.941,221.198 99.574,221.012 97.728 C 220.806 95.673,220.507 94.659,219.962 94.166 C 218.838 93.148,218.832 86.493,219.955 85.531 C 220.503 85.062,220.790 84.079,221.000 81.942 C 221.206 79.850,221.508 78.793,222.045 78.284 C 222.460 77.891,222.800 77.157,222.800 76.654 C 222.800 75.398,228.068 70.046,229.609 69.738 C 230.241 69.612,231.066 69.169,231.442 68.754 C 231.905 68.241,232.666 68.000,233.818 68.000 C 234.915 68.000,235.844 67.723,236.456 67.213 C 237.839 66.061,242.724 66.052,243.707 67.200 M233.236 73.164 C 232.787 73.613,231.826 74.229,231.103 74.531 C 229.593 75.162,227.200 77.711,227.200 78.688 C 227.200 79.051,226.795 79.780,226.300 80.306 C 225.425 81.238,225.400 81.499,225.400 89.800 C 225.400 98.101,225.425 98.362,226.300 99.294 C 226.795 99.820,227.200 100.554,227.200 100.925 C 227.200 101.889,229.782 104.612,231.287 105.236 C 231.990 105.527,232.901 106.101,233.310 106.510 C 234.529 107.729,246.212 107.391,247.501 106.100 C 247.996 105.605,248.633 105.200,248.917 105.200 C 249.660 105.200,252.659 101.981,253.015 100.802 C 253.181 100.252,253.605 99.592,253.958 99.334 C 254.938 98.617,254.925 80.926,253.945 80.377 C 253.584 80.175,253.167 79.513,253.018 78.905 C 252.686 77.551,249.693 74.400,248.739 74.400 C 248.358 74.400,247.762 73.995,247.416 73.500 C 246.471 72.149,234.534 71.866,233.236 73.164 M246.753 74.508 C 249.392 76.038,251.132 77.864,252.525 80.565 L 253.781 83.000 253.770 89.800 L 253.758 96.600 252.514 99.035 C 248.146 107.580,235.875 109.333,229.777 102.283 C 224.475 96.152,224.761 82.478,230.309 76.834 C 233.979 73.100,242.296 71.923,246.753 74.508 M74.200 108.382 C 70.703 109.049,66.475 112.088,63.500 116.073 C 62.895 116.884,62.400 117.643,62.400 117.761 C 62.400 117.880,61.905 119.017,61.300 120.288 L 60.200 122.600 60.074 138.156 L 59.949 153.713 58.842 154.819 L 57.736 155.926 49.768 156.071 L 41.800 156.217 39.288 157.520 C 34.961 159.765,31.510 163.570,29.370 168.455 C 28.757 169.855,28.086 171.225,27.879 171.500 C 27.590 171.883,24.284 172.000,13.751 172.000 C 4.850 172.000,0.000 172.141,0.000 172.400 C 0.000 172.659,5.079 172.800,14.436 172.800 L 28.872 172.800 29.617 171.900 C 30.026 171.405,30.484 170.213,30.633 169.251 C 30.783 168.289,31.242 167.214,31.653 166.862 C 32.064 166.510,32.400 165.906,32.400 165.520 C 32.400 164.726,36.551 160.400,37.312 160.400 C 37.585 160.400,38.032 160.040,38.307 159.600 C 38.626 159.090,39.240 158.800,40.003 158.800 C 40.711 158.800,41.567 158.432,42.099 157.900 C 42.962 157.036,43.317 156.995,50.999 156.877 L 59.000 156.754 60.100 155.552 L 61.200 154.351 61.200 138.818 C 61.200 125.791,61.291 123.251,61.766 123.068 C 62.078 122.949,62.537 121.865,62.788 120.660 C 63.038 119.455,63.503 118.369,63.821 118.247 C 64.140 118.125,64.404 117.704,64.409 117.313 C 64.419 116.564,68.393 112.400,69.098 112.400 C 69.323 112.400,69.594 112.067,69.700 111.660 C 69.835 111.143,70.390 110.853,71.536 110.699 C 72.439 110.578,73.448 110.209,73.777 109.880 C 75.340 108.317,108.736 108.336,110.300 109.900 C 110.829 110.429,111.689 110.800,112.386 110.800 C 113.160 110.800,113.720 111.076,113.997 111.595 C 114.232 112.033,114.873 112.503,115.422 112.641 C 115.972 112.779,116.603 113.231,116.825 113.646 C 117.047 114.061,117.492 114.400,117.814 114.400 C 118.136 114.400,118.400 114.656,118.400 114.969 C 118.400 115.282,118.850 116.073,119.400 116.727 C 119.950 117.381,120.400 118.115,120.400 118.358 C 120.400 118.601,120.805 119.205,121.300 119.700 L 122.200 120.600 122.311 146.173 C 122.389 163.941,122.556 171.907,122.860 172.273 C 123.352 172.865,276.152 173.072,277.081 172.482 C 277.444 172.251,277.590 165.931,277.681 146.453 L 277.800 120.729 278.700 120.000 C 279.195 119.600,279.600 118.927,279.600 118.506 C 279.600 118.084,280.050 117.317,280.600 116.800 C 281.150 116.283,281.600 115.532,281.600 115.130 C 281.600 114.675,281.891 114.400,282.373 114.400 C 282.798 114.400,283.260 114.040,283.400 113.600 C 283.540 113.160,283.920 112.800,284.245 112.800 C 284.570 112.800,285.286 112.350,285.836 111.800 C 286.446 111.191,287.292 110.800,288.003 110.800 C 288.697 110.800,289.508 110.436,290.007 109.900 L 290.846 109.000 308.255 109.000 C 324.542 109.000,325.698 109.046,326.190 109.718 C 326.479 110.113,327.409 110.546,328.257 110.680 C 329.106 110.813,330.160 111.258,330.600 111.668 C 333.790 114.638,335.600 116.651,335.600 117.228 C 335.600 117.599,335.971 118.149,336.425 118.451 C 336.977 118.818,337.324 119.595,337.472 120.800 C 337.594 121.790,337.988 122.833,338.347 123.117 C 338.927 123.576,339.013 125.354,339.114 139.061 L 339.227 154.489 340.359 155.620 L 341.490 156.751 349.328 156.876 C 356.356 156.987,357.222 157.075,357.698 157.727 C 358.001 158.142,358.958 158.551,359.929 158.681 C 360.964 158.820,361.777 159.183,362.005 159.609 C 362.210 159.993,362.834 160.422,363.389 160.562 C 363.945 160.701,364.400 161.082,364.400 161.408 C 364.400 161.733,364.676 162.000,365.013 162.000 C 365.349 162.000,365.743 162.315,365.886 162.700 C 366.030 163.085,366.474 163.635,366.874 163.923 C 367.273 164.210,367.600 164.785,367.600 165.200 C 367.600 165.615,367.943 166.195,368.362 166.488 C 368.842 166.825,369.234 167.759,369.421 169.011 C 369.584 170.105,370.006 171.399,370.359 171.887 L 371.000 172.775 385.500 172.787 C 394.908 172.796,400.000 172.660,400.000 172.400 C 400.000 172.141,395.137 172.000,386.212 172.000 L 372.423 172.000 371.412 169.861 C 370.855 168.685,370.400 167.587,370.400 167.422 C 370.400 165.333,364.954 159.567,361.081 157.554 L 358.600 156.265 350.536 156.092 L 342.472 155.919 341.336 154.734 L 340.200 153.549 339.993 137.874 L 339.787 122.200 338.478 119.600 C 337.758 118.170,336.904 116.521,336.580 115.936 C 335.644 114.246,331.733 110.895,329.056 109.489 L 326.600 108.200 308.000 108.200 L 289.400 108.200 286.941 109.491 C 283.987 111.042,280.140 114.779,278.491 117.700 C 275.835 122.406,275.821 122.558,275.600 148.400 L 275.400 171.800 200.421 171.901 C 148.370 171.971,125.313 171.873,125.021 171.581 C 124.741 171.301,124.533 163.383,124.400 147.880 C 124.187 123.040,124.064 121.508,122.042 118.427 C 121.671 117.862,121.145 117.040,120.873 116.600 C 119.400 114.223,118.917 113.662,117.044 112.156 C 115.920 111.253,114.010 109.993,112.800 109.357 L 110.600 108.202 93.200 108.139 C 83.630 108.105,75.080 108.215,74.200 108.382 M77.229 123.454 C 76.332 124.595,76.061 125.699,76.880 124.880 C 77.568 124.192,105.632 124.192,106.320 124.880 C 106.829 125.389,107.063 273.648,106.557 274.967 C 106.239 275.795,77.702 275.942,76.880 275.120 C 76.510 274.750,76.400 257.594,76.400 200.333 L 76.400 126.026 75.500 126.359 L 74.600 126.692 74.499 201.023 L 74.398 275.354 75.474 276.477 L 76.550 277.600 92.411 277.600 L 108.272 277.600 108.736 276.581 C 109.083 275.820,109.200 256.577,109.200 200.361 L 109.200 125.159 107.700 123.782 L 106.200 122.404 92.129 122.402 L 78.058 122.400 77.229 123.454 M293.316 123.136 C 292.922 123.541,292.285 123.985,291.900 124.123 C 291.065 124.423,290.782 275.272,291.614 276.826 C 292.013 277.571,292.615 277.600,307.718 277.600 L 323.408 277.600 324.504 276.584 L 325.600 275.568 325.600 201.230 L 325.600 126.892 324.601 126.237 L 323.602 125.583 323.501 200.491 L 323.400 275.400 309.002 275.505 C 301.083 275.563,294.333 275.483,294.002 275.328 C 293.671 275.173,293.130 275.035,292.800 275.022 C 292.269 275.002,292.187 266.602,292.084 202.399 C 291.974 133.265,292.054 125.099,292.821 127.000 C 293.089 127.665,293.149 127.589,293.172 126.549 C 293.221 124.345,293.094 124.362,308.959 124.486 C 317.012 124.549,323.600 124.465,323.600 124.300 C 323.599 122.236,295.250 121.146,293.316 123.136 M108.000 200.800 C 108.000 249.670,107.864 274.837,107.600 275.000 C 107.334 275.164,107.200 250.330,107.200 200.800 C 107.200 151.270,107.334 126.436,107.600 126.600 C 107.864 126.763,108.000 151.930,108.000 200.800 M45.230 170.900 C 45.009 171.175,44.282 172.054,43.614 172.853 L 42.400 174.306 42.400 199.963 L 42.400 225.621 43.885 227.610 L 45.371 229.600 51.885 229.600 C 57.722 229.600,58.478 229.522,59.150 228.850 C 59.563 228.438,60.148 228.018,60.450 227.917 C 60.908 227.764,61.018 223.174,61.108 200.454 L 61.216 173.174 59.708 171.789 L 58.200 170.404 51.916 170.402 C 47.367 170.401,45.521 170.538,45.230 170.900 M341.333 171.031 C 341.200 171.377,340.664 171.824,340.143 172.022 L 339.195 172.382 339.297 200.048 C 339.398 227.244,339.414 227.720,340.200 228.156 C 340.640 228.400,341.144 228.825,341.320 229.100 C 341.554 229.467,343.388 229.600,348.193 229.600 L 354.746 229.600 355.653 228.300 C 356.152 227.585,356.794 226.856,357.080 226.680 C 357.498 226.423,357.600 221.225,357.600 200.137 L 357.600 173.913 356.700 172.916 C 354.238 170.188,354.971 170.400,347.987 170.400 C 342.518 170.400,341.539 170.493,341.333 171.031 M58.320 172.880 C 58.829 173.389,59.058 225.662,58.557 226.967 C 58.244 227.784,45.684 227.924,44.880 227.120 C 44.186 226.426,44.186 173.574,44.880 172.880 C 45.212 172.548,47.280 172.400,51.600 172.400 C 55.920 172.400,57.988 172.548,58.320 172.880 M355.400 200.000 L 355.400 227.400 348.600 227.400 L 341.800 227.400 341.696 200.400 C 341.639 185.550,341.680 173.171,341.788 172.890 C 341.937 172.499,343.543 172.406,348.691 172.490 L 355.400 172.600 355.400 200.000 M341.144 200.000 C 341.144 223.734,340.960 229.100,340.266 225.631 C 340.120 224.899,340.000 213.365,340.000 200.000 C 340.000 186.635,340.120 175.101,340.266 174.369 C 340.960 170.900,341.144 176.266,341.144 200.000 M60.000 200.000 C 60.000 216.870,59.860 226.039,59.600 226.200 C 59.335 226.364,59.200 217.530,59.200 200.000 C 59.200 182.470,59.335 173.636,59.600 173.800 C 59.860 173.961,60.000 183.130,60.000 200.000 M16.192 186.700 C 14.655 187.829,14.007 208.804,15.405 212.151 L 16.011 213.600 22.141 213.600 L 28.272 213.600 28.736 212.581 C 29.417 211.087,29.370 188.960,28.683 187.600 C 28.168 186.581,17.410 185.806,16.192 186.700 M123.416 187.496 L 122.400 188.592 122.400 200.078 L 122.400 211.564 123.418 212.582 L 124.436 213.600 200.148 213.600 L 275.861 213.600 276.730 212.674 C 277.582 211.767,277.600 211.509,277.600 200.092 L 277.600 188.436 276.582 187.418 L 275.564 186.400 199.998 186.400 L 124.432 186.400 123.416 187.496 M371.614 187.174 C 371.355 187.658,371.200 192.457,371.200 200.000 C 371.200 215.012,370.490 213.600,378.034 213.600 L 384.041 213.600 384.634 212.180 C 385.993 208.928,385.359 187.658,383.875 186.714 C 382.694 185.963,372.049 186.362,371.614 187.174 M26.750 188.650 L 28.000 188.900 28.000 200.025 L 28.000 211.151 26.300 211.398 C 25.365 211.535,22.800 211.591,20.600 211.523 L 16.600 211.400 16.400 200.279 C 16.278 193.504,16.348 189.010,16.580 188.779 C 17.003 188.357,24.792 188.258,26.750 188.650 M275.106 188.734 C 275.500 188.983,275.589 191.556,275.506 200.228 L 275.400 211.400 200.442 211.501 C 145.371 211.575,125.341 211.483,124.942 211.152 C 124.201 210.537,124.142 189.618,124.880 188.880 C 125.440 188.320,274.227 188.175,275.106 188.734 M383.520 188.880 C 384.028 189.388,384.246 209.694,383.757 210.967 C 383.472 211.711,374.850 211.903,373.020 211.207 L 371.987 210.815 372.094 199.925 L 372.200 189.036 373.200 188.758 C 374.985 188.261,382.996 188.356,383.520 188.880 M13.700 227.105 C 5.026 227.172,0.000 227.355,0.000 227.605 C 0.000 227.857,4.706 228.000,12.974 228.000 C 27.861 228.000,27.833 227.995,28.226 230.680 C 28.579 233.097,30.287 236.539,32.131 238.552 C 33.608 240.165,33.861 240.338,37.800 242.436 L 40.200 243.715 49.062 243.895 L 57.923 244.076 58.941 245.138 L 59.959 246.201 60.079 263.000 L 60.200 279.800 61.314 282.143 C 61.927 283.431,62.676 284.733,62.978 285.036 C 63.281 285.338,63.590 285.724,63.664 285.894 C 63.967 286.580,68.268 289.920,69.200 290.191 C 69.750 290.352,70.650 290.780,71.200 291.142 C 72.775 292.178,111.316 292.140,112.903 291.100 C 113.491 290.715,114.204 290.400,114.487 290.400 C 115.584 290.400,121.200 285.755,121.200 284.847 C 121.200 284.669,121.565 284.102,122.011 283.587 C 122.457 283.073,122.919 282.191,123.039 281.626 C 123.158 281.062,123.513 279.874,123.828 278.987 C 124.300 277.656,124.400 273.183,124.400 253.460 C 124.400 237.741,124.542 229.282,124.814 228.774 C 125.226 228.003,272.982 227.481,274.967 228.243 C 275.535 228.460,275.600 230.982,275.600 252.629 C 275.600 271.875,275.710 277.120,276.144 278.486 C 276.443 279.429,276.900 280.965,277.160 281.900 C 277.420 282.835,277.793 283.600,277.989 283.600 C 278.185 283.600,278.447 283.919,278.571 284.309 C 279.092 285.950,282.284 288.669,286.000 290.636 L 288.200 291.800 308.018 291.800 C 326.218 291.800,327.922 291.743,328.904 291.100 C 329.491 290.715,330.234 290.400,330.555 290.400 C 330.876 290.400,331.673 289.950,332.327 289.400 C 332.981 288.850,333.687 288.400,333.897 288.400 C 334.558 288.400,337.652 284.519,338.747 282.316 L 339.799 280.200 339.919 263.151 L 340.039 246.102 341.051 245.151 C 342.035 244.225,342.295 244.194,350.931 243.969 L 359.800 243.739 362.200 242.445 C 363.520 241.733,364.968 240.937,365.419 240.675 C 366.151 240.250,367.791 238.631,369.064 237.078 C 370.027 235.902,371.310 232.921,371.760 230.815 C 372.369 227.963,371.680 228.088,387.100 228.040 C 395.514 228.014,400.000 227.859,400.000 227.595 C 400.000 227.327,395.161 227.225,385.718 227.295 L 371.436 227.400 371.107 228.980 C 370.927 229.849,370.536 230.839,370.239 231.180 C 369.941 231.521,369.578 232.636,369.431 233.658 C 369.233 235.033,368.960 235.569,368.382 235.721 C 367.952 235.833,367.600 236.226,367.600 236.593 C 367.600 237.530,365.428 239.600,364.445 239.600 C 363.996 239.600,363.447 239.939,363.225 240.353 C 362.966 240.838,362.180 241.202,361.018 241.376 C 359.959 241.535,359.057 241.926,358.835 242.324 C 358.501 242.921,357.396 243.016,349.328 243.138 C 343.880 243.220,339.998 243.441,339.700 243.687 C 339.314 244.004,339.200 248.011,339.200 261.233 C 339.200 277.456,339.160 278.407,338.451 279.084 C 338.039 279.478,337.581 280.636,337.433 281.658 C 337.234 283.032,336.960 283.570,336.382 283.721 C 335.952 283.833,335.600 284.226,335.600 284.593 C 335.600 285.433,333.470 287.600,332.645 287.600 C 332.306 287.600,331.845 287.943,331.621 288.362 C 331.342 288.882,330.577 289.211,329.205 289.399 C 327.975 289.568,327.054 289.932,326.827 290.338 C 326.251 291.367,290.469 291.349,289.331 290.319 C 288.918 289.945,287.801 289.514,286.850 289.362 C 285.900 289.210,284.711 288.706,284.210 288.243 C 280.889 285.173,279.877 284.095,279.569 283.300 C 279.377 282.805,278.972 282.400,278.669 282.400 C 277.760 282.400,277.600 277.882,277.600 252.154 C 277.600 228.711,277.578 228.016,276.826 227.614 C 276.301 227.333,251.660 227.200,200.000 227.200 C 148.340 227.200,123.699 227.333,123.174 227.614 C 122.421 228.017,122.400 228.741,122.400 254.817 L 122.400 281.605 121.400 282.475 C 120.850 282.953,120.400 283.479,120.400 283.644 C 120.400 284.118,116.942 287.600,116.471 287.600 C 116.237 287.600,115.810 287.937,115.521 288.348 C 115.218 288.782,114.241 289.221,113.199 289.392 C 112.209 289.554,111.066 289.982,110.658 290.344 C 109.504 291.364,74.462 291.341,73.332 290.319 C 72.918 289.945,71.794 289.513,70.834 289.359 C 69.875 289.206,68.804 288.747,68.456 288.340 C 68.107 287.933,67.514 287.600,67.138 287.600 C 66.762 287.600,66.346 287.259,66.214 286.843 C 66.082 286.427,65.619 285.994,65.187 285.881 C 64.728 285.761,64.400 285.334,64.400 284.857 C 64.400 284.408,64.118 283.882,63.773 283.689 C 63.428 283.496,62.971 282.542,62.757 281.569 C 62.543 280.596,62.111 279.604,61.797 279.365 C 61.320 279.002,61.206 276.068,61.112 261.685 C 61.025 248.210,60.887 244.326,60.481 243.920 C 60.099 243.537,57.587 243.347,50.949 243.200 C 43.332 243.031,41.862 242.902,41.467 242.365 C 41.210 242.015,40.192 241.621,39.204 241.490 C 38.088 241.341,37.155 240.938,36.740 240.425 C 36.372 239.971,35.805 239.600,35.478 239.600 C 34.774 239.600,32.400 237.471,32.400 236.840 C 32.400 236.598,32.059 236.059,31.642 235.642 C 31.226 235.226,30.762 234.160,30.612 233.274 C 30.463 232.388,30.084 231.564,29.770 231.444 C 29.457 231.324,29.198 230.724,29.195 230.113 C 29.178 226.735,30.422 226.977,13.700 227.105 M57.600 302.813 C 55.950 303.227,54.184 303.574,53.675 303.583 C 52.821 303.599,48.993 305.142,47.600 306.032 C 47.270 306.243,46.434 306.677,45.743 306.995 C 44.236 307.690,38.962 312.861,38.601 313.997 C 38.461 314.439,38.192 314.800,38.004 314.800 C 37.816 314.800,37.459 315.416,37.211 316.168 C 36.962 316.920,36.510 317.743,36.205 317.996 C 35.901 318.248,35.532 319.028,35.386 319.728 C 35.241 320.427,34.832 321.450,34.479 322.000 C 34.126 322.550,33.596 324.350,33.301 326.000 C 33.006 327.650,32.573 329.810,32.340 330.800 C 31.504 334.349,31.500 338.103,32.329 341.639 C 32.762 343.488,33.235 345.810,33.380 346.800 C 33.612 348.383,34.970 351.856,36.038 353.600 C 36.240 353.930,36.628 354.650,36.899 355.200 C 38.315 358.070,41.831 362.060,44.477 363.799 C 45.315 364.349,46.685 365.250,47.522 365.800 C 48.358 366.350,49.310 366.800,49.637 366.800 C 49.964 366.800,50.937 367.160,51.800 367.600 C 52.663 368.040,53.646 368.402,53.985 368.405 C 54.323 368.407,56.040 368.765,57.800 369.200 C 61.964 370.229,66.836 370.229,71.000 369.200 C 72.760 368.765,74.671 368.407,75.246 368.405 C 75.821 368.402,76.750 368.040,77.309 367.600 C 77.869 367.160,78.568 366.797,78.863 366.794 C 80.095 366.781,86.523 363.143,89.635 360.699 C 91.088 359.557,91.200 358.624,91.200 347.688 C 91.200 337.768,91.143 336.872,90.469 336.262 C 89.821 335.676,88.314 335.600,77.330 335.600 C 62.830 335.600,63.600 335.372,63.600 339.670 C 63.600 343.625,63.449 343.562,73.222 343.691 L 81.400 343.800 81.519 349.000 C 81.652 354.790,81.423 356.800,80.631 356.800 C 80.338 356.800,79.853 357.095,79.555 357.455 C 79.256 357.815,78.289 358.442,77.406 358.850 C 76.523 359.257,75.530 359.751,75.200 359.948 C 71.384 362.227,58.167 363.334,56.142 361.545 C 55.734 361.184,54.797 360.761,54.060 360.604 C 50.641 359.877,43.200 352.255,43.200 349.481 C 43.200 349.143,42.802 347.996,42.315 346.933 C 41.281 344.676,40.905 327.924,41.862 326.761 C 42.116 326.453,42.632 325.138,43.008 323.840 C 44.133 319.955,49.285 312.800,50.956 312.800 C 51.166 312.800,51.621 312.567,51.969 312.281 C 54.151 310.488,57.274 309.800,63.232 309.800 C 70.294 309.800,72.012 310.380,76.600 314.315 C 77.543 315.123,79.600 318.077,79.599 318.622 C 79.598 319.386,81.816 323.587,82.327 323.788 C 82.617 323.902,83.642 323.637,84.605 323.198 C 85.568 322.759,86.788 322.400,87.316 322.400 C 89.290 322.400,90.179 318.700,88.461 317.637 C 88.242 317.502,87.936 316.854,87.781 316.196 C 86.685 311.563,77.717 303.643,73.504 303.588 C 73.007 303.582,71.340 303.227,69.800 302.800 C 66.240 301.812,61.562 301.817,57.600 302.813 M67.707 303.600 C 68.269 304.256,68.887 304.400,71.135 304.400 C 73.316 304.400,74.069 304.566,74.813 305.211 C 75.327 305.657,76.209 306.134,76.774 306.272 C 77.338 306.409,78.229 306.855,78.754 307.261 C 79.279 307.667,80.031 308.000,80.427 308.000 C 80.822 308.000,81.257 308.351,81.394 308.780 C 81.530 309.208,81.992 309.670,82.420 309.806 C 82.849 309.943,83.200 310.328,83.200 310.664 C 83.200 311.255,84.046 312.511,85.900 314.669 C 86.395 315.245,86.800 316.224,86.800 316.844 C 86.800 317.562,87.090 318.127,87.600 318.400 C 89.428 319.378,88.646 321.077,86.228 321.379 C 85.033 321.528,83.841 321.909,83.579 322.225 C 82.878 323.070,82.400 322.926,82.400 321.870 C 82.400 321.358,81.950 320.517,81.400 320.000 C 80.830 319.464,80.400 318.613,80.400 318.019 C 80.400 317.446,80.085 316.694,79.700 316.348 C 79.315 316.001,78.684 315.135,78.298 314.423 C 77.912 313.712,77.057 312.926,76.397 312.677 C 75.738 312.428,75.102 311.948,74.985 311.612 C 74.116 309.123,58.277 307.379,54.800 309.390 C 54.250 309.708,53.350 310.178,52.800 310.434 C 52.250 310.690,51.363 311.102,50.828 311.350 C 49.009 312.192,44.418 317.012,44.148 318.362 C 44.008 319.058,43.558 319.808,43.147 320.028 C 42.735 320.249,42.400 320.860,42.400 321.393 C 42.400 321.924,41.950 323.204,41.400 324.238 C 39.621 327.585,39.937 346.794,41.802 348.659 C 42.131 348.988,42.400 349.756,42.400 350.367 C 42.400 350.977,42.750 351.793,43.177 352.179 C 43.605 352.566,44.062 353.370,44.192 353.965 C 44.704 356.297,51.230 361.600,53.587 361.600 C 54.034 361.600,54.770 361.970,55.223 362.423 C 56.335 363.535,72.113 363.481,72.933 362.362 C 73.190 362.012,74.073 361.599,74.895 361.445 C 75.762 361.283,76.566 360.837,76.809 360.383 C 77.047 359.938,77.645 359.600,78.193 359.600 C 78.724 359.600,79.663 359.153,80.279 358.606 C 80.896 358.060,81.625 357.423,81.900 357.190 C 82.837 356.399,82.588 343.329,81.626 342.814 C 81.167 342.568,77.594 342.400,72.826 342.400 L 64.800 342.400 64.800 339.600 L 64.800 336.800 77.400 336.800 L 90.000 336.800 90.000 347.683 L 90.000 358.567 87.991 360.483 C 86.885 361.538,85.632 362.400,85.206 362.400 C 84.780 362.400,84.109 362.739,83.716 363.153 C 83.322 363.568,82.403 364.035,81.673 364.191 C 80.943 364.347,80.254 364.715,80.142 365.008 C 80.029 365.301,79.232 365.660,78.369 365.805 C 77.506 365.951,76.634 366.367,76.431 366.730 C 76.146 367.240,75.196 367.445,72.226 367.637 C 69.499 367.813,68.180 368.075,67.664 368.542 C 66.522 369.575,61.211 369.473,60.293 368.400 C 59.736 367.750,59.113 367.600,56.967 367.600 C 54.974 367.600,54.088 367.413,53.356 366.836 C 52.822 366.417,51.488 365.950,50.392 365.799 C 49.297 365.648,48.400 365.375,48.400 365.191 C 48.400 364.801,44.941 362.400,44.380 362.400 C 43.763 362.400,39.600 358.088,39.600 357.448 C 39.600 357.125,39.150 356.327,38.600 355.673 C 38.050 355.019,37.600 354.208,37.600 353.871 C 37.600 353.533,37.344 353.001,37.032 352.689 C 36.719 352.376,36.264 351.379,36.020 350.473 C 35.776 349.568,35.337 348.686,35.044 348.513 C 34.695 348.307,34.439 346.998,34.300 344.697 C 34.165 342.463,33.855 340.838,33.444 340.211 C 32.555 338.855,32.541 333.350,33.423 332.374 C 33.850 331.903,34.119 330.505,34.278 327.943 C 34.451 325.147,34.684 324.032,35.198 323.538 C 35.576 323.173,36.004 322.138,36.148 321.238 C 36.292 320.337,36.570 319.600,36.766 319.600 C 36.961 319.600,37.313 319.052,37.547 318.381 C 37.780 317.711,38.338 316.697,38.786 316.127 C 39.234 315.558,39.600 314.836,39.600 314.524 C 39.600 313.678,45.550 308.000,46.436 308.000 C 46.856 308.000,47.560 307.640,48.000 307.200 C 48.440 306.760,49.224 306.400,49.742 306.400 C 50.259 306.400,51.169 305.950,51.762 305.400 C 52.733 304.500,53.174 304.400,56.159 304.400 C 58.968 304.400,59.587 304.277,60.200 303.600 C 60.803 302.933,61.432 302.800,63.973 302.800 C 66.527 302.800,67.133 302.930,67.707 303.600 M113.800 320.768 C 112.480 321.390,110.598 322.732,109.617 323.750 C 107.449 325.999,107.200 326.030,107.200 324.049 C 107.200 321.977,106.550 321.533,103.734 321.679 L 101.400 321.800 101.297 344.555 C 101.179 370.502,100.852 368.400,105.000 368.400 C 109.014 368.400,108.730 369.642,108.885 351.390 L 109.020 335.400 110.338 332.600 C 112.511 327.984,117.362 326.063,121.454 328.198 C 123.828 329.435,124.779 328.514,125.396 324.377 C 125.729 322.146,125.616 322.041,121.399 320.653 C 117.432 319.348,116.791 319.358,113.800 320.768 M149.000 319.964 C 148.560 320.136,146.615 320.605,144.679 321.006 C 138.591 322.265,134.884 325.300,132.637 330.863 C 131.485 333.715,131.661 334.225,133.940 334.652 C 134.743 334.803,135.963 335.161,136.651 335.448 C 137.907 335.972,139.200 335.320,139.200 334.163 C 139.200 328.863,152.384 325.238,159.291 328.638 C 162.271 330.105,162.961 331.187,163.138 334.668 C 163.315 338.136,162.832 338.540,157.731 339.184 C 156.009 339.401,153.790 339.776,152.800 340.017 C 151.810 340.258,149.200 340.588,147.000 340.749 C 143.136 341.033,136.400 343.103,136.400 344.007 C 136.400 344.176,135.974 344.420,135.453 344.551 C 133.128 345.135,129.600 351.500,129.600 355.112 C 129.600 359.673,134.091 365.724,138.246 366.759 C 139.101 366.972,140.880 367.447,142.200 367.815 C 144.989 368.593,149.436 368.449,152.600 367.479 C 153.700 367.142,155.374 366.661,156.319 366.411 C 157.265 366.161,159.057 365.356,160.303 364.623 C 162.967 363.055,163.168 363.091,164.144 365.309 C 164.553 366.239,165.021 367.270,165.185 367.600 C 165.387 368.006,166.234 368.239,167.806 368.322 C 171.260 368.503,173.275 367.435,171.960 366.120 C 171.227 365.387,170.836 358.066,170.817 344.752 C 170.796 329.204,169.907 325.388,165.826 323.324 C 165.152 322.983,164.330 322.484,164.000 322.217 C 162.061 320.644,151.366 319.037,149.000 319.964 M197.107 320.803 C 193.710 322.253,190.944 324.144,190.035 325.639 C 189.147 327.099,188.802 326.763,188.794 324.433 C 188.785 321.667,188.612 321.549,184.766 321.683 L 181.400 321.800 181.297 344.555 C 181.179 370.502,180.852 368.400,185.000 368.400 C 189.033 368.400,188.748 369.650,188.886 351.380 L 189.008 335.400 190.087 333.400 C 192.383 329.147,195.012 327.600,199.947 327.600 L 203.599 327.600 205.187 329.141 C 207.626 331.508,207.600 331.283,207.600 349.852 C 207.600 369.784,207.302 368.400,211.600 368.400 C 215.887 368.400,215.602 369.635,215.591 351.126 L 215.581 335.400 216.652 333.185 C 217.261 331.925,218.311 330.544,219.085 329.985 C 219.835 329.443,220.739 328.730,221.094 328.400 C 223.359 326.298,231.064 327.618,233.206 330.474 L 234.200 331.800 234.312 349.574 C 234.388 361.678,234.564 367.515,234.861 367.874 C 235.429 368.558,240.845 368.595,241.520 367.920 C 242.557 366.883,242.164 333.522,241.071 329.762 C 237.881 318.791,226.209 316.327,217.178 324.717 C 215.430 326.341,213.998 327.519,213.995 327.335 C 213.992 327.151,213.587 326.469,213.095 325.820 C 209.012 320.433,202.650 318.437,197.107 320.803 M268.400 320.747 C 264.454 322.361,260.800 325.032,260.800 326.302 C 260.800 326.602,260.620 326.736,260.400 326.600 C 260.180 326.464,260.000 325.485,260.000 324.425 C 260.000 321.832,259.546 321.540,255.738 321.682 L 252.600 321.800 252.497 344.774 C 252.415 362.889,252.500 367.816,252.897 368.068 C 253.735 368.601,259.112 368.463,259.476 367.900 C 259.654 367.625,259.891 360.200,260.003 351.400 C 260.193 336.439,260.258 335.294,261.007 333.772 C 263.203 329.305,265.992 327.600,271.104 327.600 L 274.737 327.600 276.514 329.377 C 278.863 331.727,278.800 331.139,278.800 350.570 C 278.800 363.158,278.922 367.562,279.280 367.920 C 279.806 368.446,285.092 368.584,285.865 368.092 C 286.201 367.878,286.372 363.271,286.482 351.398 L 286.635 335.000 287.795 333.022 C 291.661 326.433,301.183 325.227,304.610 330.894 C 305.360 332.133,305.406 333.098,305.520 349.783 C 305.600 361.544,305.782 367.537,306.069 367.883 C 306.629 368.558,312.051 368.589,312.720 367.920 C 313.664 366.976,313.376 333.437,312.400 330.600 C 311.960 329.321,311.600 328.013,311.600 327.693 C 311.600 327.001,309.198 323.200,308.761 323.200 C 308.594 323.200,308.206 322.949,307.899 322.641 C 306.960 321.702,301.234 319.600,299.615 319.600 C 295.695 319.600,291.017 321.880,287.445 325.533 L 285.359 327.665 283.939 325.637 C 280.328 320.479,273.957 318.474,268.400 320.747 M341.400 319.787 C 341.180 319.855,339.560 320.304,337.800 320.785 C 332.265 322.297,325.200 327.531,325.200 330.120 C 325.200 330.316,324.855 330.960,324.434 331.552 C 324.013 332.143,323.545 333.341,323.395 334.214 C 323.244 335.086,322.778 336.944,322.360 338.342 C 321.551 341.049,321.271 348.550,321.964 348.978 C 322.164 349.101,322.559 350.507,322.842 352.101 C 323.346 354.940,324.721 358.127,326.238 359.974 C 327.664 361.709,330.998 364.799,331.446 364.800 C 331.691 364.800,332.352 365.162,332.914 365.604 C 333.475 366.045,334.535 366.518,335.268 366.654 C 336.000 366.790,337.629 367.238,338.887 367.650 C 341.669 368.562,345.439 368.607,348.400 367.764 C 349.610 367.420,351.378 366.975,352.328 366.776 C 353.279 366.577,354.518 366.051,355.082 365.607 C 355.646 365.163,356.309 364.796,356.554 364.791 C 358.209 364.757,363.209 357.932,363.319 355.556 L 363.400 353.810 361.400 353.137 C 358.283 352.088,357.736 352.188,356.496 354.028 C 352.995 359.225,350.307 360.613,343.833 360.562 C 335.806 360.500,330.486 356.376,329.433 349.400 C 329.022 346.679,328.099 346.819,347.221 346.704 L 364.600 346.600 364.721 344.249 C 364.788 342.956,364.639 341.066,364.391 340.049 C 364.142 339.032,363.687 337.102,363.379 335.760 C 361.785 328.813,356.197 322.639,350.168 321.164 C 349.085 320.900,347.714 320.439,347.120 320.142 C 346.173 319.667,342.519 319.440,341.400 319.787 M119.200 321.161 C 119.200 321.643,121.436 322.400,122.860 322.400 C 123.979 322.400,124.000 322.442,124.000 324.660 L 124.000 326.921 120.300 326.693 C 113.736 326.289,110.944 327.341,109.930 330.600 C 109.656 331.480,109.154 332.410,108.816 332.667 C 108.284 333.071,108.173 335.470,108.000 350.267 L 107.800 367.400 104.900 367.518 L 102.000 367.635 102.000 345.018 L 102.000 322.400 103.954 322.400 L 105.908 322.400 106.179 324.572 C 106.619 328.091,107.204 328.163,110.130 325.059 C 111.748 323.343,112.949 322.400,113.518 322.400 C 114.003 322.400,114.715 322.055,115.100 321.633 C 115.827 320.837,119.200 320.449,119.200 321.161 M156.562 321.415 C 156.861 321.825,157.995 322.113,159.953 322.277 C 163.104 322.541,163.292 322.646,166.580 325.948 C 168.062 327.436,168.360 328.014,168.588 329.844 C 168.736 331.025,169.090 332.129,169.376 332.296 C 169.786 332.536,169.928 336.277,170.048 350.000 L 170.200 367.400 168.128 367.520 L 166.055 367.640 165.774 365.767 C 165.298 362.590,162.093 361.108,160.207 363.192 C 159.813 363.628,158.871 364.101,158.113 364.243 C 157.356 364.385,156.647 364.734,156.537 365.019 C 156.414 365.341,155.210 365.643,153.363 365.816 C 151.392 366.001,150.064 366.349,149.430 366.848 C 148.203 367.813,144.743 367.886,143.824 366.967 C 143.475 366.618,141.921 366.145,140.371 365.915 C 138.572 365.648,137.180 365.189,136.524 364.648 C 135.580 363.869,135.076 363.370,132.796 360.958 C 132.358 360.495,132.000 359.668,132.000 359.120 C 132.000 358.572,131.640 357.798,131.200 357.400 C 130.180 356.477,130.179 354.781,131.199 353.110 C 131.638 352.389,131.998 351.298,131.999 350.685 C 132.001 348.510,137.935 343.600,140.559 343.600 C 141.063 343.600,141.777 343.268,142.144 342.862 C 142.709 342.237,143.686 342.084,148.506 341.866 C 153.144 341.656,154.290 341.485,154.687 340.945 C 155.048 340.455,155.987 340.239,158.287 340.119 C 159.999 340.030,161.817 339.870,162.326 339.764 C 165.584 339.086,164.633 328.400,161.314 328.400 C 160.917 328.400,160.384 328.066,160.128 327.657 C 159.545 326.723,153.194 326.205,147.475 326.625 C 143.503 326.917,142.835 327.211,140.394 329.737 C 139.366 330.801,139.017 331.373,138.148 333.419 C 137.830 334.168,137.617 334.208,135.651 333.881 L 133.502 333.523 133.748 331.729 C 133.993 329.942,134.956 328.307,136.733 326.663 C 138.957 324.606,139.747 324.000,140.204 324.000 C 140.473 324.000,141.121 323.667,141.646 323.260 C 142.273 322.774,143.627 322.427,145.598 322.248 C 147.377 322.087,148.834 321.737,149.183 321.388 C 150.034 320.537,155.936 320.559,156.562 321.415 M204.800 321.600 C 205.240 322.040,206.129 322.400,206.776 322.400 C 207.423 322.400,208.075 322.598,208.225 322.841 C 208.375 323.083,209.106 323.536,209.849 323.846 C 210.684 324.195,211.200 324.690,211.200 325.141 C 211.200 325.972,213.116 328.645,213.959 328.991 C 214.300 329.131,215.489 328.246,217.021 326.710 C 220.976 322.746,221.264 322.545,223.400 322.261 C 224.500 322.115,225.600 321.726,225.844 321.397 C 226.534 320.470,230.222 320.602,231.491 321.600 C 232.050 322.040,232.950 322.400,233.491 322.400 C 234.031 322.400,234.931 322.760,235.491 323.200 C 236.050 323.640,236.739 324.000,237.022 324.000 C 237.305 324.000,237.651 324.521,237.791 325.159 C 237.931 325.796,238.395 326.634,238.823 327.021 C 239.389 327.533,239.600 328.251,239.600 329.666 C 239.600 331.113,239.804 331.782,240.400 332.293 C 241.177 332.958,241.200 333.473,241.200 350.306 L 241.200 367.635 238.300 367.518 L 235.400 367.400 235.296 348.928 L 235.192 330.455 233.425 328.688 C 231.064 326.327,222.123 325.492,220.530 327.484 C 220.271 327.807,219.461 328.371,218.730 328.736 C 217.998 329.101,217.093 330.014,216.719 330.765 C 216.344 331.516,215.810 332.270,215.531 332.443 C 214.723 332.942,214.459 337.942,214.428 353.300 L 214.400 367.600 211.600 367.600 L 208.800 367.600 208.779 351.500 C 208.750 328.156,208.524 327.249,202.597 326.614 C 195.898 325.897,194.281 326.593,188.864 332.528 C 188.274 333.175,188.178 335.154,188.000 350.328 L 187.800 367.400 184.900 367.518 L 182.000 367.635 182.000 345.018 L 182.000 322.400 185.000 322.400 L 188.000 322.400 188.000 324.711 C 188.000 328.384,189.731 329.938,190.638 327.079 C 190.985 325.987,192.787 324.185,193.879 323.838 C 194.346 323.690,194.946 323.306,195.213 322.985 C 195.480 322.663,196.196 322.400,196.805 322.400 C 197.413 322.400,198.336 322.046,198.856 321.613 C 200.191 320.501,203.693 320.493,204.800 321.600 M275.891 321.600 C 276.450 322.040,277.413 322.400,278.030 322.400 C 278.648 322.400,279.275 322.598,279.425 322.841 C 279.575 323.083,280.306 323.536,281.049 323.846 C 281.962 324.228,282.400 324.677,282.400 325.232 C 282.400 325.984,284.685 329.176,285.236 329.193 C 285.365 329.197,287.030 327.693,288.934 325.852 C 292.034 322.855,292.588 322.483,294.215 322.299 C 295.215 322.187,296.354 321.803,296.748 321.447 C 297.837 320.461,301.618 320.561,302.507 321.600 C 302.897 322.056,303.687 322.400,304.342 322.400 C 304.975 322.400,305.950 322.760,306.509 323.200 C 307.069 323.640,307.727 324.000,307.972 324.000 C 308.217 324.000,308.631 324.495,308.893 325.100 C 309.154 325.705,309.690 326.629,310.084 327.154 C 310.517 327.731,310.800 328.798,310.800 329.854 C 310.800 331.067,311.044 331.844,311.600 332.400 C 312.375 333.175,312.400 333.733,312.400 350.400 L 312.400 367.600 309.400 367.600 L 306.400 367.600 306.400 349.170 L 306.400 330.741 304.466 328.713 L 302.532 326.686 297.408 326.671 C 292.617 326.658,292.237 326.714,291.577 327.529 C 291.189 328.008,290.577 328.400,290.217 328.400 C 289.376 328.400,287.600 330.306,287.600 331.210 C 287.600 331.591,287.195 332.171,286.700 332.500 L 285.800 333.097 285.684 350.366 L 285.568 367.634 282.684 367.517 L 279.800 367.400 279.600 349.000 C 279.384 329.085,279.448 329.625,277.095 327.863 C 274.597 325.993,266.595 325.986,264.582 327.851 C 264.019 328.373,263.388 328.800,263.179 328.800 C 262.971 328.800,262.800 329.049,262.800 329.354 C 262.800 329.659,262.350 330.203,261.800 330.563 C 261.250 330.924,260.800 331.419,260.800 331.665 C 260.800 331.911,260.502 332.329,260.138 332.596 C 259.169 333.304,258.842 338.683,258.819 354.300 L 258.800 367.600 256.000 367.600 L 253.200 367.600 253.200 345.000 L 253.200 322.400 255.961 322.400 L 258.721 322.400 259.004 324.900 C 259.383 328.261,261.585 330.251,261.604 327.251 C 261.610 326.450,263.887 324.202,265.064 323.837 C 265.539 323.690,266.146 323.306,266.413 322.985 C 266.680 322.663,267.416 322.400,268.049 322.400 C 268.682 322.400,269.515 322.055,269.900 321.633 C 270.909 320.529,274.503 320.509,275.891 321.600 M347.091 321.600 C 347.742 322.112,348.714 322.400,349.792 322.400 C 350.968 322.400,351.694 322.641,352.200 323.200 C 352.598 323.640,353.268 324.000,353.688 324.000 C 354.451 324.000,358.800 328.015,358.800 328.720 C 358.800 328.925,359.135 329.521,359.545 330.046 C 359.955 330.571,360.429 331.450,360.600 332.000 C 360.771 332.550,361.245 333.429,361.655 333.954 C 362.172 334.616,362.400 335.569,362.400 337.070 C 362.400 338.442,362.692 339.804,363.200 340.800 C 363.652 341.686,364.000 343.158,364.000 344.184 L 364.000 346.000 346.876 346.000 C 333.284 346.000,329.603 346.109,329.027 346.531 C 327.925 347.337,328.266 352.380,329.512 353.706 C 330.000 354.226,330.400 354.960,330.400 355.336 C 330.400 356.194,333.759 359.600,334.606 359.600 C 334.950 359.600,335.781 360.005,336.450 360.500 C 337.597 361.347,338.054 361.400,344.202 361.400 C 350.428 361.400,350.782 361.358,351.694 360.500 C 352.221 360.005,352.820 359.596,353.026 359.591 C 353.232 359.586,354.030 358.851,354.800 357.957 C 358.441 353.732,358.046 353.996,360.327 354.266 C 362.786 354.557,363.123 355.626,361.400 357.673 C 360.850 358.327,360.400 359.101,360.400 359.393 C 360.400 360.274,356.547 364.000,355.636 364.000 C 355.176 364.000,354.446 364.354,354.012 364.788 C 353.460 365.340,352.413 365.656,350.512 365.847 C 348.830 366.016,347.438 366.400,346.846 366.859 C 345.590 367.835,342.856 367.820,340.912 366.828 C 340.081 366.404,338.341 365.930,337.047 365.775 C 335.583 365.601,334.412 365.212,333.947 364.747 C 333.536 364.336,332.920 364.000,332.579 364.000 C 331.787 364.000,329.200 361.953,329.200 361.327 C 329.200 361.067,328.849 360.743,328.420 360.606 C 327.992 360.470,327.535 360.025,327.405 359.616 C 327.276 359.208,326.923 358.779,326.622 358.664 C 326.322 358.549,325.944 357.857,325.784 357.127 C 325.624 356.397,325.157 355.565,324.746 355.277 C 324.140 354.852,324.000 354.234,324.000 351.973 C 324.000 349.687,323.858 349.070,323.200 348.507 C 322.540 347.942,322.400 347.327,322.400 344.996 C 322.400 342.959,322.624 341.731,323.200 340.600 C 323.694 339.632,324.000 338.241,324.000 336.969 C 324.000 335.514,324.235 334.609,324.800 333.891 C 325.240 333.331,325.600 332.622,325.600 332.315 C 325.600 332.007,326.050 331.145,326.600 330.400 C 327.150 329.655,327.600 328.868,327.600 328.653 C 327.600 327.926,331.959 324.000,332.767 324.000 C 333.208 324.000,333.891 323.665,334.284 323.255 C 334.751 322.770,335.814 322.430,337.335 322.281 C 338.620 322.154,340.060 321.779,340.535 321.446 C 341.869 320.514,345.828 320.607,347.091 321.600 M338.891 326.670 C 336.953 326.800,336.272 327.016,335.895 327.619 C 335.627 328.049,335.120 328.400,334.769 328.400 C 333.484 328.400,330.400 331.229,330.400 332.408 C 330.400 333.140,330.066 333.727,329.400 334.163 C 328.057 335.043,327.892 339.300,329.174 339.986 C 330.007 340.432,355.094 340.578,356.704 340.147 C 358.280 339.725,358.395 334.826,356.878 332.806 C 355.219 330.599,353.251 328.830,352.172 328.576 C 351.527 328.424,350.730 327.969,350.400 327.565 C 349.747 326.764,344.068 326.323,338.891 326.670 M349.732 328.474 C 350.102 328.844,350.796 329.272,351.273 329.423 C 351.751 329.575,352.603 330.127,353.167 330.649 C 353.730 331.172,354.299 331.600,354.431 331.600 C 354.975 331.600,356.915 336.145,356.956 337.516 L 357.000 339.000 343.200 339.000 L 329.400 339.000 329.481 337.246 C 329.529 336.205,329.864 335.148,330.305 334.646 C 330.713 334.181,331.249 333.324,331.496 332.741 C 332.007 331.537,333.695 330.177,336.600 328.631 C 339.106 327.297,348.446 327.185,349.732 328.474 M157.800 344.680 C 157.360 344.783,156.775 345.157,156.500 345.511 C 156.097 346.029,154.867 346.197,150.171 346.377 C 145.180 346.568,144.286 346.701,143.951 347.300 C 143.673 347.798,143.062 348.000,141.835 348.000 C 140.510 348.000,139.750 348.286,138.558 349.233 C 136.431 350.924,136.413 350.970,136.406 354.718 C 136.400 358.224,136.410 358.246,138.981 360.333 C 141.307 362.222,155.813 362.105,156.548 360.192 C 156.673 359.866,157.202 359.600,157.723 359.600 C 158.991 359.600,161.172 357.846,162.750 355.557 C 164.067 353.647,164.835 346.380,163.876 344.900 C 163.559 344.409,159.572 344.265,157.800 344.680 M163.118 348.570 C 163.311 353.686,161.533 356.341,156.098 359.051 L 153.000 360.597 147.600 360.581 C 141.846 360.564,140.477 360.164,138.200 357.837 C 135.829 355.413,138.020 349.710,141.600 348.989 C 142.150 348.879,143.698 348.524,145.040 348.201 C 146.382 347.878,149.564 347.431,152.111 347.208 C 154.659 346.984,157.251 346.595,157.872 346.342 C 159.109 345.838,161.967 345.259,162.600 345.385 C 162.820 345.428,163.053 346.862,163.118 348.570 " stroke="none" fill="#5a5757" fill-rule="evenodd"></path><path id="path4" d="M16.592 188.768 C 16.345 189.014,16.274 193.281,16.400 200.279 L 16.600 211.400 21.600 211.400 L 26.600 211.400 26.600 200.000 L 26.600 188.600 21.792 188.488 C 19.034 188.424,16.816 188.544,16.592 188.768 M373.694 188.734 C 373.300 188.983,373.211 191.556,373.294 200.228 L 373.400 211.400 378.368 211.513 C 382.075 211.597,383.420 211.495,383.662 211.113 C 384.212 210.247,384.078 189.438,383.520 188.880 C 382.971 188.331,374.526 188.206,373.694 188.734 " stroke="none" fill="#ffff00" fill-rule="evenodd"></path><path id="path5" d="M134.000 81.800 L 134.000 113.200 137.800 113.200 L 141.600 113.200 141.606 100.500 C 141.610 93.209,141.774 87.544,141.991 87.200 C 142.307 86.700,143.953 86.580,151.874 86.479 C 158.005 86.401,161.472 86.207,161.641 85.934 C 161.947 85.438,164.753 84.842,166.900 84.817 C 167.849 84.806,168.694 84.506,169.200 84.000 C 169.640 83.560,170.358 83.200,170.797 83.200 C 171.235 83.200,171.818 82.840,172.093 82.400 C 172.368 81.960,172.715 81.600,172.865 81.600 C 173.473 81.600,175.600 79.086,175.600 78.369 C 175.600 77.946,175.958 77.242,176.396 76.804 C 176.901 76.299,177.287 75.204,177.451 73.808 C 177.593 72.597,177.955 71.404,178.255 71.155 C 178.600 70.868,178.800 69.856,178.800 68.400 C 178.800 66.944,178.600 65.932,178.255 65.645 C 177.955 65.396,177.591 64.183,177.445 62.948 C 177.294 61.661,176.844 60.274,176.391 59.697 C 175.956 59.145,175.600 58.485,175.600 58.232 C 175.600 57.600,171.499 53.600,170.851 53.600 C 170.562 53.600,169.869 53.240,169.309 52.800 C 168.516 52.176,167.686 52.000,165.546 52.000 C 163.333 52.000,162.645 51.845,162.000 51.200 C 161.231 50.431,160.667 50.400,147.600 50.400 L 134.000 50.400 134.000 81.800 M167.800 58.244 C 171.330 61.872,171.300 61.772,171.130 69.248 C 170.983 75.770,170.083 78.030,167.400 78.617 C 166.740 78.761,165.901 79.259,165.536 79.723 C 164.655 80.840,142.692 81.099,141.993 80.000 C 141.389 79.048,141.485 57.475,142.096 56.864 C 142.475 56.485,145.403 56.395,154.396 56.484 L 166.200 56.600 167.800 58.244 M204.293 67.200 C 203.916 67.640,203.177 68.000,202.650 68.000 C 201.984 68.000,200.930 68.814,199.197 70.667 C 196.278 73.787,195.614 73.754,195.044 70.459 L 194.687 68.400 192.744 68.400 L 190.800 68.400 190.800 90.800 L 190.800 113.200 193.800 113.200 L 196.800 113.200 196.800 96.431 L 196.800 79.661 197.800 78.473 C 198.350 77.819,198.800 76.840,198.800 76.296 C 198.800 75.593,199.349 74.874,200.700 73.810 L 202.600 72.314 207.669 72.509 L 212.738 72.704 213.010 70.727 C 213.337 68.353,213.348 68.367,210.758 67.958 C 209.625 67.779,208.392 67.355,208.018 67.016 C 207.056 66.146,205.114 66.241,204.293 67.200 M236.456 67.213 C 235.844 67.723,234.915 68.000,233.818 68.000 C 232.666 68.000,231.905 68.241,231.442 68.754 C 231.066 69.169,230.241 69.612,229.609 69.738 C 228.068 70.046,222.800 75.398,222.800 76.654 C 222.800 77.157,222.460 77.891,222.045 78.284 C 221.508 78.793,221.206 79.850,221.000 81.942 C 220.790 84.079,220.503 85.062,219.955 85.531 C 218.832 86.493,218.838 93.148,219.962 94.166 C 220.507 94.659,220.806 95.673,221.012 97.728 C 221.198 99.574,221.568 100.941,222.050 101.554 C 222.463 102.079,222.800 102.835,222.800 103.234 C 222.800 104.201,228.057 109.499,229.335 109.819 C 229.888 109.958,230.652 110.416,231.033 110.836 C 231.527 111.382,232.262 111.600,233.608 111.600 C 234.886 111.600,235.819 111.857,236.509 112.400 C 237.857 113.461,240.717 113.461,242.696 112.400 C 243.650 111.889,244.952 111.600,246.307 111.600 C 247.789 111.600,248.492 111.426,248.648 111.019 C 248.770 110.700,249.530 110.223,250.335 109.959 C 252.152 109.364,257.070 104.489,257.435 102.921 C 257.579 102.305,257.987 101.569,258.342 101.287 C 258.810 100.916,259.058 99.782,259.243 97.176 C 259.418 94.697,259.700 93.353,260.149 92.857 C 261.174 91.724,261.068 86.268,260.000 85.200 C 259.365 84.565,259.200 83.867,259.200 81.816 C 259.200 79.783,259.036 79.078,258.432 78.516 C 258.010 78.122,257.537 77.288,257.380 76.663 C 257.048 75.339,251.511 69.600,250.566 69.600 C 250.214 69.600,249.469 69.240,248.909 68.800 C 248.244 68.277,247.286 68.000,246.142 68.000 C 244.887 68.000,244.198 67.774,243.707 67.200 C 242.724 66.052,237.839 66.061,236.456 67.213 M247.416 73.500 C 247.762 73.995,248.358 74.400,248.739 74.400 C 249.693 74.400,252.686 77.551,253.018 78.905 C 253.167 79.513,253.584 80.175,253.945 80.377 C 254.925 80.926,254.938 98.617,253.958 99.334 C 253.605 99.592,253.181 100.252,253.015 100.802 C 252.659 101.981,249.660 105.200,248.917 105.200 C 248.633 105.200,247.996 105.605,247.501 106.100 C 246.212 107.391,234.529 107.729,233.310 106.510 C 232.901 106.101,231.990 105.527,231.287 105.236 C 229.782 104.612,227.200 101.889,227.200 100.925 C 227.200 100.554,226.795 99.820,226.300 99.294 C 225.425 98.362,225.400 98.101,225.400 89.800 C 225.400 81.499,225.425 81.238,226.300 80.306 C 226.795 79.780,227.200 79.051,227.200 78.688 C 227.200 77.711,229.593 75.162,231.103 74.531 C 231.826 74.229,232.787 73.613,233.236 73.164 C 234.534 71.866,246.471 72.149,247.416 73.500 M76.485 109.143 C 75.081 109.287,73.826 109.635,73.643 109.931 C 73.463 110.222,72.545 110.564,71.605 110.690 C 70.397 110.852,69.837 111.137,69.700 111.660 C 69.594 112.067,69.323 112.400,69.098 112.400 C 68.393 112.400,64.419 116.564,64.409 117.313 C 64.404 117.704,64.140 118.125,63.821 118.247 C 63.503 118.369,63.038 119.455,62.788 120.660 C 62.537 121.865,62.078 122.949,61.766 123.068 C 61.291 123.251,61.200 125.791,61.200 138.818 L 61.200 154.351 60.100 155.552 L 59.000 156.754 50.999 156.877 C 43.317 156.995,42.962 157.036,42.099 157.900 C 41.567 158.432,40.711 158.800,40.003 158.800 C 39.240 158.800,38.626 159.090,38.307 159.600 C 38.032 160.040,37.585 160.400,37.312 160.400 C 36.551 160.400,32.400 164.726,32.400 165.520 C 32.400 165.906,32.064 166.510,31.653 166.862 C 31.242 167.214,30.783 168.289,30.633 169.251 C 30.484 170.213,30.026 171.405,29.617 171.900 L 28.872 172.800 14.436 172.800 L 0.000 172.800 0.000 200.009 L 0.000 227.217 14.248 227.190 C 22.084 227.175,28.585 227.252,28.695 227.361 C 28.804 227.471,28.988 228.395,29.103 229.414 C 29.218 230.434,29.543 231.357,29.826 231.465 C 30.109 231.574,30.463 232.388,30.612 233.274 C 30.762 234.160,31.226 235.226,31.642 235.642 C 32.059 236.059,32.400 236.598,32.400 236.840 C 32.400 237.471,34.774 239.600,35.478 239.600 C 35.805 239.600,36.372 239.971,36.740 240.425 C 37.155 240.938,38.088 241.341,39.204 241.490 C 40.192 241.621,41.210 242.015,41.467 242.365 C 41.862 242.902,43.332 243.031,50.949 243.200 C 57.587 243.347,60.099 243.537,60.481 243.920 C 60.887 244.326,61.025 248.210,61.112 261.685 C 61.206 276.068,61.320 279.002,61.797 279.365 C 62.111 279.604,62.543 280.596,62.757 281.569 C 62.971 282.542,63.428 283.496,63.773 283.689 C 64.118 283.882,64.400 284.408,64.400 284.857 C 64.400 285.334,64.728 285.761,65.187 285.881 C 65.619 285.994,66.082 286.427,66.214 286.843 C 66.346 287.259,66.762 287.600,67.138 287.600 C 67.514 287.600,68.107 287.933,68.456 288.340 C 68.804 288.747,69.875 289.206,70.834 289.359 C 71.794 289.513,72.918 289.945,73.332 290.319 C 74.462 291.341,109.504 291.364,110.658 290.344 C 111.066 289.982,112.209 289.554,113.199 289.392 C 114.241 289.221,115.218 288.782,115.521 288.348 C 115.810 287.937,116.237 287.600,116.471 287.600 C 116.942 287.600,120.400 284.118,120.400 283.644 C 120.400 283.479,120.850 282.953,121.400 282.475 L 122.400 281.605 122.400 254.817 C 122.400 228.741,122.421 228.017,123.174 227.614 C 124.254 227.036,275.746 227.036,276.826 227.614 C 277.578 228.016,277.600 228.711,277.600 252.154 C 277.600 277.882,277.760 282.400,278.669 282.400 C 278.972 282.400,279.377 282.805,279.569 283.300 C 279.877 284.095,280.889 285.173,284.210 288.243 C 284.711 288.706,285.900 289.210,286.850 289.362 C 287.801 289.514,288.918 289.945,289.331 290.319 C 290.469 291.349,326.251 291.367,326.827 290.338 C 327.054 289.932,327.975 289.568,329.205 289.399 C 330.577 289.211,331.342 288.882,331.621 288.362 C 331.845 287.943,332.306 287.600,332.645 287.600 C 333.470 287.600,335.600 285.433,335.600 284.593 C 335.600 284.226,335.952 283.833,336.382 283.721 C 336.960 283.570,337.234 283.032,337.433 281.658 C 337.581 280.636,338.039 279.478,338.451 279.084 C 339.160 278.407,339.200 277.456,339.200 261.233 C 339.200 248.011,339.314 244.004,339.700 243.687 C 339.998 243.441,343.880 243.220,349.328 243.138 C 357.396 243.016,358.501 242.921,358.835 242.324 C 359.057 241.926,359.959 241.535,361.018 241.376 C 362.180 241.202,362.966 240.838,363.225 240.353 C 363.447 239.939,363.996 239.600,364.445 239.600 C 365.428 239.600,367.600 237.530,367.600 236.593 C 367.600 236.226,367.952 235.833,368.382 235.721 C 368.960 235.569,369.233 235.033,369.431 233.658 C 369.578 232.636,369.941 231.521,370.239 231.180 C 370.536 230.839,370.927 229.849,371.107 228.980 L 371.436 227.400 385.718 227.295 L 400.000 227.190 400.000 199.995 L 400.000 172.800 385.500 172.787 L 371.000 172.775 370.359 171.887 C 370.006 171.399,369.584 170.105,369.421 169.011 C 369.234 167.759,368.842 166.825,368.362 166.488 C 367.943 166.195,367.600 165.615,367.600 165.200 C 367.600 164.785,367.273 164.210,366.874 163.923 C 366.474 163.635,366.030 163.085,365.886 162.700 C 365.743 162.315,365.349 162.000,365.013 162.000 C 364.676 162.000,364.400 161.733,364.400 161.408 C 364.400 161.082,363.945 160.701,363.389 160.562 C 362.834 160.422,362.210 159.993,362.005 159.609 C 361.777 159.183,360.964 158.820,359.929 158.681 C 358.958 158.551,358.001 158.142,357.698 157.727 C 357.222 157.075,356.356 156.987,349.328 156.876 L 341.490 156.751 340.359 155.620 L 339.227 154.489 339.114 139.061 C 339.013 125.354,338.927 123.576,338.347 123.117 C 337.988 122.833,337.594 121.790,337.472 120.800 C 337.324 119.595,336.977 118.818,336.425 118.451 C 335.971 118.149,335.600 117.599,335.600 117.228 C 335.600 116.651,333.790 114.638,330.600 111.668 C 330.160 111.258,329.106 110.813,328.257 110.680 C 327.409 110.546,326.479 110.113,326.190 109.718 C 325.698 109.046,324.542 109.000,308.255 109.000 L 290.846 109.000 290.007 109.900 C 289.508 110.436,288.697 110.800,288.003 110.800 C 287.292 110.800,286.446 111.191,285.836 111.800 C 285.286 112.350,284.570 112.800,284.245 112.800 C 283.920 112.800,283.540 113.160,283.400 113.600 C 283.260 114.040,282.798 114.400,282.373 114.400 C 281.891 114.400,281.600 114.675,281.600 115.130 C 281.600 115.532,281.150 116.283,280.600 116.800 C 280.050 117.317,279.600 118.084,279.600 118.506 C 279.600 118.927,279.195 119.600,278.700 120.000 L 277.800 120.729 277.681 146.453 C 277.590 165.931,277.444 172.251,277.081 172.482 C 276.152 173.072,123.352 172.865,122.860 172.273 C 122.556 171.907,122.389 163.941,122.311 146.173 L 122.200 120.600 121.300 119.700 C 120.805 119.205,120.400 118.601,120.400 118.358 C 120.400 118.115,119.950 117.381,119.400 116.727 C 118.850 116.073,118.400 115.282,118.400 114.969 C 118.400 114.656,118.136 114.400,117.814 114.400 C 117.492 114.400,117.047 114.061,116.825 113.646 C 116.603 113.231,115.972 112.779,115.422 112.641 C 114.873 112.503,114.232 112.033,113.997 111.595 C 113.720 111.076,113.160 110.800,112.386 110.800 C 111.689 110.800,110.829 110.429,110.300 109.900 C 109.368 108.967,83.804 108.395,76.485 109.143 M107.700 123.782 L 109.200 125.159 109.200 200.361 C 109.200 256.577,109.083 275.820,108.736 276.581 L 108.272 277.600 92.458 277.600 L 76.644 277.600 75.522 276.525 L 74.400 275.450 74.400 201.115 L 74.400 126.780 75.400 126.400 C 75.980 126.180,76.400 125.702,76.400 125.264 C 76.400 124.848,76.773 124.034,77.229 123.454 L 78.058 122.400 92.129 122.402 L 106.200 122.404 107.700 123.782 M322.800 123.200 C 323.240 123.640,323.600 124.356,323.600 124.791 C 323.600 125.226,324.050 125.876,324.600 126.237 L 325.600 126.892 325.600 201.230 L 325.600 275.568 324.504 276.584 L 323.408 277.600 307.718 277.600 C 292.615 277.600,292.013 277.571,291.614 276.826 C 290.782 275.272,291.065 124.423,291.900 124.123 C 292.285 123.985,292.922 123.541,293.316 123.136 C 294.471 121.948,321.607 122.007,322.800 123.200 M59.708 171.789 L 61.216 173.174 61.108 200.454 C 61.018 223.174,60.908 227.764,60.450 227.917 C 60.148 228.018,59.563 228.438,59.150 228.850 C 58.478 229.522,57.722 229.600,51.885 229.600 L 45.371 229.600 43.885 227.610 L 42.400 225.621 42.400 199.963 L 42.400 174.306 43.614 172.853 C 44.282 172.054,45.009 171.175,45.230 170.900 C 45.521 170.538,47.367 170.401,51.916 170.402 L 58.200 170.404 59.708 171.789 M355.100 171.159 C 355.485 171.577,356.205 172.368,356.700 172.916 L 357.600 173.913 357.600 200.137 C 357.600 221.225,357.498 226.423,357.080 226.680 C 356.794 226.856,356.152 227.585,355.653 228.300 L 354.746 229.600 348.193 229.600 C 343.388 229.600,341.554 229.467,341.320 229.100 C 341.144 228.825,340.640 228.400,340.200 228.156 C 339.414 227.720,339.398 227.244,339.297 200.048 L 339.195 172.382 340.143 172.022 C 340.664 171.824,341.200 171.377,341.333 171.031 C 341.734 169.986,354.126 170.102,355.100 171.159 M28.683 187.600 C 29.370 188.960,29.417 211.087,28.736 212.581 L 28.272 213.600 22.141 213.600 L 16.011 213.600 15.405 212.151 C 14.007 208.804,14.655 187.829,16.192 186.700 C 17.410 185.806,28.168 186.581,28.683 187.600 M276.582 187.418 L 277.600 188.436 277.600 200.092 C 277.600 211.509,277.582 211.767,276.730 212.674 L 275.861 213.600 200.148 213.600 L 124.436 213.600 123.418 212.582 L 122.400 211.564 122.400 200.078 L 122.400 188.592 123.416 187.496 L 124.432 186.400 199.998 186.400 L 275.564 186.400 276.582 187.418 M383.875 186.714 C 385.359 187.658,385.993 208.928,384.634 212.180 L 384.041 213.600 378.034 213.600 C 370.490 213.600,371.200 215.012,371.200 200.000 C 371.200 192.457,371.355 187.658,371.614 187.174 C 372.049 186.362,382.694 185.963,383.875 186.714 M60.200 303.600 C 59.587 304.277,58.968 304.400,56.159 304.400 C 53.174 304.400,52.733 304.500,51.762 305.400 C 51.169 305.950,50.259 306.400,49.742 306.400 C 49.224 306.400,48.440 306.760,48.000 307.200 C 47.560 307.640,46.856 308.000,46.436 308.000 C 45.550 308.000,39.600 313.678,39.600 314.524 C 39.600 314.836,39.234 315.558,38.786 316.127 C 38.338 316.697,37.780 317.711,37.547 318.381 C 37.313 319.052,36.961 319.600,36.766 319.600 C 36.570 319.600,36.292 320.337,36.148 321.238 C 36.004 322.138,35.576 323.173,35.198 323.538 C 34.684 324.032,34.451 325.147,34.278 327.943 C 34.119 330.505,33.850 331.903,33.423 332.374 C 32.541 333.350,32.555 338.855,33.444 340.211 C 33.855 340.838,34.165 342.463,34.300 344.697 C 34.439 346.998,34.695 348.307,35.044 348.513 C 35.337 348.686,35.776 349.568,36.020 350.473 C 36.264 351.379,36.719 352.376,37.032 352.689 C 37.344 353.001,37.600 353.533,37.600 353.871 C 37.600 354.208,38.050 355.019,38.600 355.673 C 39.150 356.327,39.600 357.125,39.600 357.448 C 39.600 358.088,43.763 362.400,44.380 362.400 C 44.941 362.400,48.400 364.801,48.400 365.191 C 48.400 365.375,49.297 365.648,50.392 365.799 C 51.488 365.950,52.822 366.417,53.356 366.836 C 54.088 367.413,54.974 367.600,56.967 367.600 C 59.113 367.600,59.736 367.750,60.293 368.400 C 61.211 369.473,66.522 369.575,67.664 368.542 C 68.180 368.075,69.499 367.813,72.226 367.637 C 75.196 367.445,76.146 367.240,76.431 366.730 C 76.634 366.367,77.506 365.951,78.369 365.805 C 79.232 365.660,80.029 365.301,80.142 365.008 C 80.254 364.715,80.943 364.347,81.673 364.191 C 82.403 364.035,83.322 363.568,83.716 363.153 C 84.109 362.739,84.780 362.400,85.206 362.400 C 85.632 362.400,86.885 361.538,87.991 360.483 L 90.000 358.567 90.000 347.683 L 90.000 336.800 77.400 336.800 L 64.800 336.800 64.800 339.600 L 64.800 342.400 72.826 342.400 C 77.594 342.400,81.167 342.568,81.626 342.814 C 82.588 343.329,82.837 356.399,81.900 357.190 C 81.625 357.423,80.896 358.060,80.279 358.606 C 79.663 359.153,78.724 359.600,78.193 359.600 C 77.645 359.600,77.047 359.938,76.809 360.383 C 76.566 360.837,75.762 361.283,74.895 361.445 C 74.073 361.599,73.190 362.012,72.933 362.362 C 72.113 363.481,56.335 363.535,55.223 362.423 C 54.770 361.970,54.034 361.600,53.587 361.600 C 51.230 361.600,44.704 356.297,44.192 353.965 C 44.062 353.370,43.605 352.566,43.177 352.179 C 42.750 351.793,42.400 350.977,42.400 350.367 C 42.400 349.756,42.131 348.988,41.802 348.659 C 39.937 346.794,39.621 327.585,41.400 324.238 C 41.950 323.204,42.400 321.924,42.400 321.393 C 42.400 320.860,42.735 320.249,43.147 320.028 C 43.558 319.808,44.008 319.058,44.148 318.362 C 44.418 317.012,49.009 312.192,50.828 311.350 C 51.363 311.102,52.250 310.690,52.800 310.434 C 53.350 310.178,54.250 309.708,54.800 309.390 C 58.277 307.379,74.116 309.123,74.985 311.612 C 75.102 311.948,75.738 312.428,76.397 312.677 C 77.057 312.926,77.912 313.712,78.298 314.423 C 78.684 315.135,79.315 316.001,79.700 316.348 C 80.085 316.694,80.400 317.446,80.400 318.019 C 80.400 318.613,80.830 319.464,81.400 320.000 C 81.950 320.517,82.400 321.358,82.400 321.870 C 82.400 322.926,82.878 323.070,83.579 322.225 C 83.841 321.909,85.033 321.528,86.228 321.379 C 88.646 321.077,89.428 319.378,87.600 318.400 C 87.090 318.127,86.800 317.562,86.800 316.844 C 86.800 316.224,86.395 315.245,85.900 314.669 C 84.046 312.511,83.200 311.255,83.200 310.664 C 83.200 310.328,82.849 309.943,82.420 309.806 C 81.992 309.670,81.530 309.208,81.394 308.780 C 81.257 308.351,80.822 308.000,80.427 308.000 C 80.031 308.000,79.279 307.667,78.754 307.261 C 78.229 306.855,77.338 306.409,76.774 306.272 C 76.209 306.134,75.327 305.657,74.813 305.211 C 74.069 304.566,73.316 304.400,71.135 304.400 C 68.887 304.400,68.269 304.256,67.707 303.600 C 67.133 302.930,66.527 302.800,63.973 302.800 C 61.432 302.800,60.803 302.933,60.200 303.600 M115.100 321.633 C 114.715 322.055,114.003 322.400,113.518 322.400 C 112.949 322.400,111.748 323.343,110.130 325.059 C 107.204 328.163,106.619 328.091,106.179 324.572 L 105.908 322.400 103.954 322.400 L 102.000 322.400 102.000 345.018 L 102.000 367.635 104.900 367.518 L 107.800 367.400 108.000 350.267 C 108.173 335.470,108.284 333.071,108.816 332.667 C 109.154 332.410,109.656 331.480,109.930 330.600 C 110.944 327.341,113.736 326.289,120.300 326.693 L 124.000 326.921 124.000 324.660 C 124.000 322.442,123.979 322.400,122.860 322.400 C 121.436 322.400,119.200 321.643,119.200 321.161 C 119.200 320.449,115.827 320.837,115.100 321.633 M149.183 321.388 C 148.834 321.737,147.377 322.087,145.598 322.248 C 143.627 322.427,142.273 322.774,141.646 323.260 C 141.121 323.667,140.473 324.000,140.204 324.000 C 139.747 324.000,138.957 324.606,136.733 326.663 C 134.956 328.307,133.993 329.942,133.748 331.729 L 133.502 333.523 135.651 333.881 C 137.617 334.208,137.830 334.168,138.148 333.419 C 139.017 331.373,139.366 330.801,140.394 329.737 C 142.835 327.211,143.503 326.917,147.475 326.625 C 153.194 326.205,159.545 326.723,160.128 327.657 C 160.384 328.066,160.917 328.400,161.314 328.400 C 164.633 328.400,165.584 339.086,162.326 339.764 C 161.817 339.870,159.999 340.030,158.287 340.119 C 155.987 340.239,155.048 340.455,154.687 340.945 C 154.290 341.485,153.144 341.656,148.506 341.866 C 143.686 342.084,142.709 342.237,142.144 342.862 C 141.777 343.268,141.063 343.600,140.559 343.600 C 137.935 343.600,132.001 348.510,131.999 350.685 C 131.998 351.298,131.638 352.389,131.199 353.110 C 130.179 354.781,130.180 356.477,131.200 357.400 C 131.640 357.798,132.000 358.572,132.000 359.120 C 132.000 359.668,132.358 360.495,132.796 360.958 C 135.076 363.370,135.580 363.869,136.524 364.648 C 137.180 365.189,138.572 365.648,140.371 365.915 C 141.921 366.145,143.475 366.618,143.824 366.967 C 144.743 367.886,148.203 367.813,149.430 366.848 C 150.064 366.349,151.392 366.001,153.363 365.816 C 155.210 365.643,156.414 365.341,156.537 365.019 C 156.647 364.734,157.356 364.385,158.113 364.243 C 158.871 364.101,159.813 363.628,160.207 363.192 C 162.093 361.108,165.298 362.590,165.774 365.767 L 166.055 367.640 168.128 367.520 L 170.200 367.400 170.048 350.000 C 169.928 336.277,169.786 332.536,169.376 332.296 C 169.090 332.129,168.736 331.025,168.588 329.844 C 168.360 328.014,168.062 327.436,166.580 325.948 C 163.292 322.646,163.104 322.541,159.953 322.277 C 157.995 322.113,156.861 321.825,156.562 321.415 C 155.936 320.559,150.034 320.537,149.183 321.388 M198.856 321.613 C 198.336 322.046,197.413 322.400,196.805 322.400 C 196.196 322.400,195.480 322.663,195.213 322.985 C 194.946 323.306,194.346 323.690,193.879 323.838 C 192.787 324.185,190.985 325.987,190.638 327.079 C 189.731 329.938,188.000 328.384,188.000 324.711 L 188.000 322.400 185.000 322.400 L 182.000 322.400 182.000 345.018 L 182.000 367.635 184.900 367.518 L 187.800 367.400 188.000 350.328 C 188.178 335.154,188.274 333.175,188.864 332.528 C 194.281 326.593,195.898 325.897,202.597 326.614 C 208.524 327.249,208.750 328.156,208.779 351.500 L 208.800 367.600 211.600 367.600 L 214.400 367.600 214.428 353.300 C 214.459 337.942,214.723 332.942,215.531 332.443 C 215.810 332.270,216.344 331.516,216.719 330.765 C 217.093 330.014,217.998 329.101,218.730 328.736 C 219.461 328.371,220.271 327.807,220.530 327.484 C 222.123 325.492,231.064 326.327,233.425 328.688 L 235.192 330.455 235.296 348.928 L 235.400 367.400 238.300 367.518 L 241.200 367.635 241.200 350.306 C 241.200 333.473,241.177 332.958,240.400 332.293 C 239.804 331.782,239.600 331.113,239.600 329.666 C 239.600 328.251,239.389 327.533,238.823 327.021 C 238.395 326.634,237.931 325.796,237.791 325.159 C 237.651 324.521,237.305 324.000,237.022 324.000 C 236.739 324.000,236.050 323.640,235.491 323.200 C 234.931 322.760,234.031 322.400,233.491 322.400 C 232.950 322.400,232.050 322.040,231.491 321.600 C 230.222 320.602,226.534 320.470,225.844 321.397 C 225.600 321.726,224.500 322.115,223.400 322.261 C 221.264 322.545,220.976 322.746,217.021 326.710 C 215.489 328.246,214.300 329.131,213.959 328.991 C 213.116 328.645,211.200 325.972,211.200 325.141 C 211.200 324.690,210.684 324.195,209.849 323.846 C 209.106 323.536,208.375 323.083,208.225 322.841 C 208.075 322.598,207.423 322.400,206.776 322.400 C 206.129 322.400,205.240 322.040,204.800 321.600 C 203.693 320.493,200.191 320.501,198.856 321.613 M269.900 321.633 C 269.515 322.055,268.682 322.400,268.049 322.400 C 267.416 322.400,266.680 322.663,266.413 322.985 C 266.146 323.306,265.539 323.690,265.064 323.837 C 263.887 324.202,261.610 326.450,261.604 327.251 C 261.585 330.251,259.383 328.261,259.004 324.900 L 258.721 322.400 255.961 322.400 L 253.200 322.400 253.200 345.000 L 253.200 367.600 256.000 367.600 L 258.800 367.600 258.819 354.300 C 258.842 338.683,259.169 333.304,260.138 332.596 C 260.502 332.329,260.800 331.911,260.800 331.665 C 260.800 331.419,261.250 330.924,261.800 330.563 C 262.350 330.203,262.800 329.659,262.800 329.354 C 262.800 329.049,262.971 328.800,263.179 328.800 C 263.388 328.800,264.019 328.373,264.582 327.851 C 266.595 325.986,274.597 325.993,277.095 327.863 C 279.448 329.625,279.384 329.085,279.600 349.000 L 279.800 367.400 282.684 367.517 L 285.568 367.634 285.684 350.366 L 285.800 333.097 286.700 332.500 C 287.195 332.171,287.600 331.591,287.600 331.210 C 287.600 330.306,289.376 328.400,290.217 328.400 C 290.577 328.400,291.189 328.008,291.577 327.529 C 292.237 326.714,292.617 326.658,297.408 326.671 L 302.532 326.686 304.466 328.713 L 306.400 330.741 306.400 349.170 L 306.400 367.600 309.400 367.600 L 312.400 367.600 312.400 350.400 C 312.400 333.733,312.375 333.175,311.600 332.400 C 311.044 331.844,310.800 331.067,310.800 329.854 C 310.800 328.798,310.517 327.731,310.084 327.154 C 309.690 326.629,309.154 325.705,308.893 325.100 C 308.631 324.495,308.217 324.000,307.972 324.000 C 307.727 324.000,307.069 323.640,306.509 323.200 C 305.950 322.760,304.975 322.400,304.342 322.400 C 303.687 322.400,302.897 322.056,302.507 321.600 C 301.618 320.561,297.837 320.461,296.748 321.447 C 296.354 321.803,295.215 322.187,294.215 322.299 C 292.588 322.483,292.034 322.855,288.934 325.852 C 287.030 327.693,285.365 329.197,285.236 329.193 C 284.685 329.176,282.400 325.984,282.400 325.232 C 282.400 324.677,281.962 324.228,281.049 323.846 C 280.306 323.536,279.575 323.083,279.425 322.841 C 279.275 322.598,278.648 322.400,278.030 322.400 C 277.413 322.400,276.450 322.040,275.891 321.600 C 274.503 320.509,270.909 320.529,269.900 321.633 M340.535 321.446 C 340.060 321.779,338.620 322.154,337.335 322.281 C 335.814 322.430,334.751 322.770,334.284 323.255 C 333.891 323.665,333.208 324.000,332.767 324.000 C 331.959 324.000,327.600 327.926,327.600 328.653 C 327.600 328.868,327.150 329.655,326.600 330.400 C 326.050 331.145,325.600 332.007,325.600 332.315 C 325.600 332.622,325.240 333.331,324.800 333.891 C 324.235 334.609,324.000 335.514,324.000 336.969 C 324.000 338.241,323.694 339.632,323.200 340.600 C 322.624 341.731,322.400 342.959,322.400 344.996 C 322.400 347.327,322.540 347.942,323.200 348.507 C 323.858 349.070,324.000 349.687,324.000 351.973 C 324.000 354.234,324.140 354.852,324.746 355.277 C 325.157 355.565,325.624 356.397,325.784 357.127 C 325.944 357.857,326.322 358.549,326.622 358.664 C 326.923 358.779,327.276 359.208,327.405 359.616 C 327.535 360.025,327.992 360.470,328.420 360.606 C 328.849 360.743,329.200 361.067,329.200 361.327 C 329.200 361.953,331.787 364.000,332.579 364.000 C 332.920 364.000,333.536 364.336,333.947 364.747 C 334.412 365.212,335.583 365.601,337.047 365.775 C 338.341 365.930,340.081 366.404,340.912 366.828 C 342.856 367.820,345.590 367.835,346.846 366.859 C 347.438 366.400,348.830 366.016,350.512 365.847 C 352.413 365.656,353.460 365.340,354.012 364.788 C 354.446 364.354,355.176 364.000,355.636 364.000 C 356.547 364.000,360.400 360.274,360.400 359.393 C 360.400 359.101,360.850 358.327,361.400 357.673 C 363.123 355.626,362.786 354.557,360.327 354.266 C 358.046 353.996,358.441 353.732,354.800 357.957 C 354.030 358.851,353.232 359.586,353.026 359.591 C 352.820 359.596,352.221 360.005,351.694 360.500 C 350.782 361.358,350.428 361.400,344.202 361.400 C 338.054 361.400,337.597 361.347,336.450 360.500 C 335.781 360.005,334.950 359.600,334.606 359.600 C 333.759 359.600,330.400 356.194,330.400 355.336 C 330.400 354.960,330.000 354.226,329.512 353.706 C 328.266 352.380,327.925 347.337,329.027 346.531 C 329.603 346.109,333.284 346.000,346.876 346.000 L 364.000 346.000 364.000 344.184 C 364.000 343.158,363.652 341.686,363.200 340.800 C 362.692 339.804,362.400 338.442,362.400 337.070 C 362.400 335.569,362.172 334.616,361.655 333.954 C 361.245 333.429,360.771 332.550,360.600 332.000 C 360.429 331.450,359.955 330.571,359.545 330.046 C 359.135 329.521,358.800 328.925,358.800 328.720 C 358.800 328.015,354.451 324.000,353.688 324.000 C 353.268 324.000,352.598 323.640,352.200 323.200 C 351.694 322.641,350.968 322.400,349.792 322.400 C 348.714 322.400,347.742 322.112,347.091 321.600 C 345.828 320.607,341.869 320.514,340.535 321.446 M350.400 327.565 C 350.730 327.969,351.527 328.424,352.172 328.576 C 353.251 328.830,355.219 330.599,356.878 332.806 C 358.395 334.826,358.280 339.725,356.704 340.147 C 355.094 340.578,330.007 340.432,329.174 339.986 C 327.892 339.300,328.057 335.043,329.400 334.163 C 330.066 333.727,330.400 333.140,330.400 332.408 C 330.400 331.229,333.484 328.400,334.769 328.400 C 335.120 328.400,335.627 328.049,335.895 327.619 C 336.792 326.184,349.235 326.137,350.400 327.565 M163.876 344.900 C 164.835 346.380,164.067 353.647,162.750 355.557 C 161.172 357.846,158.991 359.600,157.723 359.600 C 157.202 359.600,156.673 359.866,156.548 360.192 C 155.813 362.105,141.307 362.222,138.981 360.333 C 136.410 358.246,136.400 358.224,136.406 354.718 C 136.413 350.970,136.431 350.924,138.558 349.233 C 139.750 348.286,140.510 348.000,141.835 348.000 C 143.062 348.000,143.673 347.798,143.951 347.300 C 144.286 346.701,145.180 346.568,150.171 346.377 C 154.867 346.197,156.097 346.029,156.500 345.511 C 157.367 344.395,163.235 343.910,163.876 344.900 " stroke="none" fill="#020202" fill-rule="evenodd"></path></g></svg>